<svg width="30" height="44" fill="none" xmlns="http://www.w3.org/2000/svg"><path d="M2.145 42.263a46.004 46.004 0 0025.046 0 2.952 2.952 0 002.144-2.827V13.201c-.035-2.022-1.751-3.145-3.667-2.934V8.8a2.203 2.203 0 00-2.2-2.2H22V2.2A2.202 2.202 0 0019.8 0H9.534a2.202 2.202 0 00-2.2 2.2v4.4H5.867a2.203 2.203 0 00-2.2 2.2v1.467C1.75 10.061.037 11.17 0 13.201v26.232a2.955 2.955 0 002.145 2.83zM23.468 8.067a.734.734 0 01.733.733v1.467h-2.2v-2.2h1.467zM8.8 2.2a.734.734 0 01.734-.733H19.8a.734.734 0 01.733.733v8.067H8.8V2.2zM5.134 8.8a.734.734 0 01.733-.733h1.467v2.2h-2.2V8.8zm-3.667 4.4a1.468 1.468 0 011.466-1.466h23.468a1.468 1.468 0 011.467 1.467v26.235a1.478 1.478 0 01-1.077 1.415 44.68 44.68 0 01-24.246 0 1.482 1.482 0 01-1.078-1.418V13.201z" fill="#000"/><path d="M7.334 22.734H22a2.202 2.202 0 002.2-2.2v-4.4a2.202 2.202 0 00-2.2-2.2H7.334a2.203 2.203 0 00-2.2 2.2v4.4a2.203 2.203 0 002.2 2.2zm-.734-6.6a.734.734 0 01.734-.733H22a.734.734 0 01.733.733v4.4a.735.735 0 01-.733.734H7.334a.734.734 0 01-.734-.734v-4.4zm8.067 8.8a2.933 2.933 0 000 5.867 2.933 2.933 0 000-5.867zm0 4.4a1.467 1.467 0 010-2.933 1.467 1.467 0 010 2.934zM6.6 30.802a2.933 2.933 0 000-5.867 2.933 2.933 0 000 5.867zm0-4.4a1.467 1.467 0 010 2.934 1.467 1.467 0 010-2.934zm13.2 1.467a2.934 2.934 0 005.868 0 2.934 2.934 0 00-5.867 0zm4.401 0a1.467 1.467 0 01-2.933 0 1.467 1.467 0 012.933 0zM14.667 33a2.934 2.934 0 000 5.867 2.933 2.933 0 000-5.867zm0 4.4a1.467 1.467 0 010-2.933 1.467 1.467 0 010 2.934zM6.6 38.869a2.933 2.933 0 000-5.867 2.934 2.934 0 000 5.867zm0-4.4a1.467 1.467 0 010 2.934 1.467 1.467 0 010-2.934zm16.134-1.467a2.934 2.934 0 000 5.867 2.933 2.933 0 000-5.867zm0 4.4a1.467 1.467 0 010-2.933 1.467 1.467 0 010 2.934z" fill="#000"/></svg>