<svg width="35" height="36" fill="none" xmlns="http://www.w3.org/2000/svg"><path d="M12.996 10.862a6.18 6.18 0 018.73 0 .56.56 0 10.79-.79c-2.842-2.844-7.468-2.844-10.31 0a.56.56 0 10.79.79z" fill="#000"/><path d="M14.018 11.885a.56.56 0 10.792.791 3.612 3.612 0 015.102 0 .56.56 0 10.791-.791 4.732 4.732 0 00-6.685 0z" fill="#000"/><path d="M15.832 13.698a.56.56 0 10.791.791 1.069 1.069 0 011.476 0 .56.56 0 10.791-.791c-.816-.817-2.24-.818-3.058 0z" fill="#000"/><path d="M31.871 32.096a.56.56 0 00-.56-.56H30.4V21.455c2.572-.217 4.6-2.375 4.6-4.999a5.008 5.008 0 00-3.755-4.852C32.883 6.006 28.76 0 22.538 0a9.12 9.12 0 00-8.248 5.29C9.857 2.995 4.47 6.6 4.84 11.452 2.007 11.582 0 13.833 0 16.456a5.024 5.024 0 005.019 5.019h.566v10.062h-.917a.56.56 0 00-.56.56 3.726 3.726 0 003.722 3.72h20.32c.993 0 1.927-.385 2.628-1.086a3.702 3.702 0 001.093-2.635zM5.02 20.356c-2.15 0-3.9-1.75-3.9-3.9 0-2.213 1.821-4.065 4.319-3.879a.56.56 0 00.59-.66c-.821-4.433 4.353-7.888 8.225-5.354a.56.56 0 00.831-.272 7.992 7.992 0 017.454-5.172c5.665 0 9.338 5.684 7.45 10.72a.56.56 0 00.459.752 3.886 3.886 0 013.434 3.865 3.906 3.906 0 01-3.482 3.876v-1.51a3.32 3.32 0 00-3.313-3.318H8.9a3.32 3.32 0 00-3.314 3.318v1.534H5.02zm24.261.562v10.619h-8.114a.56.56 0 00-.56.56v.565h-5.233v-.566a.56.56 0 00-.56-.56H6.706V18.823a2.2 2.2 0 012.194-2.2h18.188a2.2 2.2 0 012.193 2.2v2.096zm.707 13.021c-.49.49-1.143.76-1.837.76H7.83a2.607 2.607 0 01-2.542-2.043h8.966v.565c0 .31.25.56.56.56h6.352a.56.56 0 00.56-.56v-.565h8.965a2.598 2.598 0 01-.705 1.283z" fill="#000"/><path d="M17.991 18.013a6.073 6.073 0 00-6.066 6.066 6.073 6.073 0 006.066 6.066 6.073 6.073 0 006.067-6.066 6.073 6.073 0 00-6.067-6.066zm0 1.119c.476 0 1.325 1.651 1.429 4.388h-2.857c.104-2.736.953-4.388 1.428-4.388zm-4.912 5.507h2.364c.056 1.539.342 3.034.844 4.078a4.954 4.954 0 01-3.208-4.078zm2.364-1.12H13.08a4.955 4.955 0 013.209-4.078c-.503 1.044-.789 2.54-.845 4.079zm2.548 5.507c-.459 0-1.326-1.543-1.428-4.387h2.857c-.102 2.844-.97 4.387-1.429 4.387zm1.705-.309c.502-1.044.788-2.54.844-4.078h2.365a4.954 4.954 0 01-3.21 4.078zm.844-5.197c-.056-1.54-.342-3.035-.844-4.08a4.955 4.955 0 013.209 4.08H20.54z" fill="#000"/></svg>