<svg width="29" height="29" fill="none" xmlns="http://www.w3.org/2000/svg"><path d="M28.428.004H.572a.512.512 0 0 0-.568.568v27.856a.511.511 0 0 0 .568.568h27.856a.511.511 0 0 0 .568-.568V.572a.511.511 0 0 0-.568-.568zm-.569 27.855H1.141V1.141h26.718v26.718z" fill="#000"/><path d="M5.688 19.332h9.096a.512.512 0 0 0 .569-.568V5.12a.51.51 0 0 0-.569-.569H5.688a.512.512 0 0 0-.568.569v13.644a.512.512 0 0 0 .568.568zm.569-1.137V12.17l.341.228a2.217 2.217 0 0 0 2.956 0 .91.91 0 0 1 .74-.341 1.024 1.024 0 0 1 .795.34c.4.375.93.58 1.478.57a2.388 2.388 0 0 0 1.478-.57l.17-.17v5.97H6.258zm7.959-12.507v5.287a2.74 2.74 0 0 0-.91.512.91.91 0 0 1-.739.341 1.024 1.024 0 0 1-.796-.341c-.4-.375-.93-.579-1.478-.569a2.388 2.388 0 0 0-1.478.569.966.966 0 0 1-1.478 0 2.388 2.388 0 0 0-1.08-.512V5.688h7.959zm7.39 4.548a2.842 2.842 0 1 0 0-5.684 2.842 2.842 0 0 0 0 5.684zm0-4.548a1.706 1.706 0 1 1-1.705 1.706 1.65 1.65 0 0 1 1.705-1.706zm0 11.939a2.843 2.843 0 1 0 0-5.686 2.843 2.843 0 0 0 0 5.686zm0-4.548a1.706 1.706 0 1 1-1.705 1.705 1.65 1.65 0 0 1 1.705-1.705zM6.256 25.585a1.705 1.705 0 1 0-1.705-1.705 1.649 1.649 0 0 0 1.706 1.706zm0-2.273a.568.568 0 1 1-.568.568.512.512 0 0 1 .569-.568zm5.686-1.137a1.706 1.706 0 1 0 1.705 1.705 1.65 1.65 0 0 0-1.705-1.705zm0 2.273a.568.568 0 1 1 .568-.568.513.513 0 0 1-.568.569zm5.685 1.137a1.706 1.706 0 1 0-1.706-1.705 1.65 1.65 0 0 0 1.706 1.706zm0-2.273a.568.568 0 1 1-.569.568.512.512 0 0 1 .569-.568zm3.98.568a1.706 1.706 0 1 0 1.704-1.705 1.647 1.647 0 0 0-1.705 1.705zm2.273 0a.568.568 0 1 1-.569-.568.51.51 0 0 1 .569.568z" fill="#000"/></svg>