<svg width="60" height="60" fill="none" xmlns="http://www.w3.org/2000/svg"><path d="M29.69 59.38a29.69 29.69 0 1129.69-29.69 29.732 29.732 0 01-29.69 29.69zm0-56.22a26.53 26.53 0 1026.53 26.53A26.562 26.562 0 0029.69 3.16z" fill="#222"/><path d="M29.69 53.06a23.37 23.37 0 1123.37-23.37 23.402 23.402 0 01-23.37 23.37zm0-43.581A20.21 20.21 0 1049.901 29.69 20.232 20.232 0 0029.69 9.48z" fill="#222"/><path d="M29.69 9.479a1.58 1.58 0 01-1.58-1.58V1.58a1.58 1.58 0 113.16 0V7.9a1.58 1.58 0 01-1.58 1.58zm20.18 13.555a1.58 1.58 0 01-.6-3.044l5.844-2.38a1.58 1.58 0 012.065.863 1.584 1.584 0 01-.864 2.065l-5.845 2.38c-.19.079-.395.118-.6.116zm5.097 20.59c-.242 0-.48-.057-.695-.169l-5.677-2.77a1.583 1.583 0 011.39-2.843l5.677 2.78a1.58 1.58 0 01-.695 3.002zm-42.644 9.721a1.623 1.623 0 01-.98-.337 1.59 1.59 0 01-.263-2.254l3.897-4.95a1.58 1.58 0 012.814.793 1.58 1.58 0 01-.329 1.166l-3.897 4.95a1.613 1.613 0 01-1.242.632zm8.194-17.725a1.58 1.58 0 01-1.58-1.58V28.5a1.58 1.58 0 013.16 0v5.54a1.58 1.58 0 01-1.58 1.58zm6.119 0a1.58 1.58 0 01-1.58-1.58V23.234a1.58 1.58 0 113.16 0V34.04a1.58 1.58 0 01-1.58 1.58zm6.108 0a1.58 1.58 0 01-1.58-1.58v-8.7a1.58 1.58 0 113.16 0v8.7a1.58 1.58 0 01-1.58 1.58zm6.12 0a1.58 1.58 0 01-1.58-1.58V28.5a1.58 1.58 0 113.16 0v5.54a1.58 1.58 0 01-1.58 1.58z" fill="#222"/></svg>