<svg width="29" height="35" fill="none" xmlns="http://www.w3.org/2000/svg"><path d="M29 29V6c0-3.364-6.37-6-14.5-6C6.37 0 0 2.636 0 6v23c0 3.364 6.37 6 14.5 6 8.13 0 14.5-2.636 14.5-6zM14.5 1C22.575 1 28 3.585 28 6s-5.425 5-13.5 5S1 8.415 1 6s5.425-5 13.5-5zm0 11c6.22 0 11.404-1.543 13.5-3.774v3.524c0 2.415-5.425 5-13.5 5S1 14.165 1 11.75V8.226C3.096 10.457 8.28 12 14.5 12zm0 5.75c6.22 0 11.404-1.543 13.5-3.774V17.5c0 2.415-5.425 5-13.5 5S1 19.915 1 17.5v-3.524c2.096 2.231 7.28 3.774 13.5 3.774zm0 5.75c6.22 0 11.404-1.543 13.5-3.774v3.524c0 2.415-5.425 5-13.5 5S1 25.665 1 23.25v-3.524C3.096 21.957 8.28 23.5 14.5 23.5zM1 29v-3.524c2.096 2.231 7.28 3.774 13.5 3.774s11.404-1.543 13.5-3.774V29c0 2.415-5.425 5-13.5 5S1 31.415 1 29z" fill="#000"/></svg>