<svg width="33" height="35" fill="none" xmlns="http://www.w3.org/2000/svg"><path d="M0 9.625h2.063V11H0v9.625h2.063V22H0v9.625h2.063v2.75h28.875v-2.75H33V22h-2.063v-1.375H33V11h-2.063V9.625H33V0H0v9.625zM29.563 33H3.438v-1.375h26.125V33zm2.062-9.625v6.875H1.375v-6.875h30.25zM29.562 22H3.438v-1.375h26.125V22zm2.063-9.625v6.875H1.375v-6.875h30.25zM29.562 11H3.438V9.625h26.125V11zM1.375 1.375h30.25V8.25H1.375V1.375z" fill="#000"/><path d="M3.438 3.438h1.374v2.75H3.438v-2.75zm3.437 0H8.25v2.75H6.875v-2.75zm3.438 0h1.374v2.75h-1.374v-2.75zm3.437 0h1.375v2.75H13.75v-2.75zm14.438.687h1.375V5.5h-1.375V4.125zm-11 0h8.937V5.5h-8.938V4.125zM3.438 14.438h1.374v2.75H3.438v-2.75zm3.437 0H8.25v2.75H6.875v-2.75zm3.438 0h1.374v2.75h-1.374v-2.75zm3.437 0h1.375v2.75H13.75v-2.75zm14.438.687h1.375V16.5h-1.375v-1.375zm-11 0h8.937V16.5h-8.938v-1.375zM3.438 25.438h1.374v2.75H3.438v-2.75zm3.437 0H8.25v2.75H6.875v-2.75zm3.438 0h1.374v2.75h-1.374v-2.75zm3.437 0h1.375v2.75H13.75v-2.75zm14.438.687h1.375V27.5h-1.375v-1.375zm-11 0h8.937V27.5h-8.938v-1.375z" fill="#000"/></svg>