<svg width="12" height="16" fill="none" xmlns="http://www.w3.org/2000/svg"><path d="M11.257 4.171l-4-4C7.2.114 7.143.057 7.086.057 7.029 0 6.914 0 6.857 0H1.714C.743 0 0 .743 0 1.714v12.572C0 15.257.743 16 1.714 16h8c.972 0 1.715-.743 1.715-1.714V4.57c0-.057 0-.171-.058-.228 0-.057-.057-.114-.114-.172zM7.43 1.943L9.486 4H8c-.343 0-.571-.229-.571-.571V1.943zm2.857 12.343c0 .343-.229.571-.572.571h-8c-.343 0-.571-.228-.571-.571V1.714c0-.343.228-.571.571-.571h4.572v2.286c0 .971.743 1.714 1.714 1.714h2.286v9.143z" fill="#000"/></svg>