<svg width="31" height="28" fill="none" xmlns="http://www.w3.org/2000/svg"><path d="M28.735 26.97H2.265C1.205 26.97.5 26.266.5 25.207V2.265C.5 1.205 1.206.5 2.265.5h26.47c1.06 0 1.765.706 1.765 1.765v22.94c0 1.06-.706 1.766-1.765 1.766z" stroke="#000" stroke-miterlimit="10" stroke-linecap="round" stroke-linejoin="round"/><path d="M9.324 13.735c-.53 0-.883.353-.883.883v3.176L7.206 16.56a.853.853 0 00-1.235 0l-1.06 1.235v-3.176c0-.53-.352-.883-.882-.883-.529 0-.882.353-.882.883v5.646l.53.53h.705c.177 0 .177-.177.353-.177L6.676 18.5l2.118 2.118h.177s.176 0 .176.176h.706s.176 0 .176-.176c0 0 .177 0 .177-.177v-5.823c0-.53-.353-.883-.882-.883zm8.823 0c-.53 0-.882.353-.882.883v3.176l-1.236-1.235a.853.853 0 00-1.235 0l-1.059 1.235v-3.176c0-.53-.353-.883-.882-.883-.53 0-.882.353-.882.883v5.647l.529.53h.706c.176 0 .176-.177.353-.177L15.5 18.5l2.118 2.118h.176s.177 0 .177.176h.706s.176 0 .176-.176c0 0 .176 0 .176-.177v-5.823c0-.53-.352-.883-.882-.883zm8.824 0c-.53 0-.883.353-.883.883v3.176l-1.235-1.235a.853.853 0 00-1.235 0l-1.06 1.235v-3.176c0-.53-.352-.883-.881-.883-.53 0-.883.353-.883.883v5.647l.53.53h.705c.177 0 .177-.177.353-.177l1.941-2.118 2.118 2.118h.177s.176 0 .176.176h.706s.177 0 .177-.176c0 0 .176 0 .176-.177v-5.823c0-.53-.353-.883-.882-.883zm-1.765-8.823a.882.882 0 100-1.765.882.882 0 000 1.765zm-3.529 0a.882.882 0 100-1.765.882.882 0 000 1.765zm-3.53 0a.882.882 0 100-1.765.882.882 0 000 1.765z" fill="#000"/><path d="M1.382 7.559h28.236" stroke="#000" stroke-miterlimit="10" stroke-linecap="round" stroke-linejoin="round"/></svg>