<svg width="36" height="30" fill="none" xmlns="http://www.w3.org/2000/svg"><path d="M0 0v29.68h36V0H0zm34.523 28.203H1.477V7.088h33.046v21.115zM1.477 5.611V1.477h33.046V5.61H1.477z" fill="#231F20"/><path d="M23.965 2.761h-2.273v1.477h2.273V2.76zm4.43 0h-2.274v1.477h2.274V2.76zm4.43 0h-2.274v1.477h2.274V2.76zM8.092 19.787l.974-2.924.99 2.924h1.093l1.698-5.154h-1.344l-.9 2.82-.946-2.82H8.505l-.93 2.82-.9-2.82H5.3L7 19.787h1.093zm7.9 0l.974-2.924.99 2.924h1.092l1.699-5.154h-1.344l-.9 2.82-.946-2.82h-1.152l-.93 2.82-.9-2.82H13.2l1.698 5.154h1.093zm7.915 0l.974-2.924.99 2.924h1.092l1.698-5.154h-1.344l-.9 2.82-.945-2.82H24.32l-.93 2.82-.901-2.82h-1.373l1.712 5.154h1.079zm5.906 0a.798.798 0 00.761-.492.825.825 0 00.002-.635.767.767 0 00-.187-.261.87.87 0 00-1.167 0 .766.766 0 00-.25.576.797.797 0 00.25.59.871.871 0 00.59.222z" fill="#231F20"/></svg>