<svg width="33" height="33" fill="none" xmlns="http://www.w3.org/2000/svg"><path d="M3.77 32.53h25a3.77 3.77 0 003.76-3.76v-25A3.77 3.77 0 0028.77 0h-25A3.77 3.77 0 000 3.77v25a3.77 3.77 0 003.77 3.76zm-2-28.72a2 2 0 012-2h25a2 2 0 012 2v25a2 2 0 01-2 2h-25a2 2 0 01-2-2v-25z" fill="#000"/><path d="M7.99 14.78h16.52a.89.89 0 00.63-1.52l-4.61-4.71a.9.9 0 00-1.28 1.26l3.1 3.18H7.99a.9.9 0 000 1.79zm16.52 3.01H7.99a.91.91 0 00-.887 1.084.93.93 0 00.247.476l4.62 4.7a.89.89 0 001.522-.635.9.9 0 00-.262-.635L10.1 19.6h14.41a.9.9 0 100-1.8v-.01z" fill="#000"/></svg>