<svg width="30" height="28" fill="none" xmlns="http://www.w3.org/2000/svg"><path d="M2.884 0A2.888 2.888 0 0 0 0 2.884v7.094a2.886 2.886 0 0 0 2.884 2.88h3.545V15H4.286v2.143h6.428V15H8.571v-2.143h3.545A2.888 2.888 0 0 0 15 9.973v-7.09A2.888 2.888 0 0 0 12.116 0H2.884zm0 2.143h9.236a.74.74 0 0 1 .737.74v7.095a.74.74 0 0 1-.74.736H2.883a.742.742 0 0 1-.741-.74v-7.09c0-.407.331-.741.74-.741zm14.259 0v2.143h3.545c.41 0 .74.333.74.74v3.545h2.143V5.027a2.888 2.888 0 0 0-2.883-2.884h-3.545zm.74 8.571A2.888 2.888 0 0 0 15 13.598v7.094a2.886 2.886 0 0 0 2.884 2.88h3.545v2.142h-2.143v2.143h6.428v-2.143h-2.143v-2.143h3.545A2.888 2.888 0 0 0 30 20.688v-7.09a2.888 2.888 0 0 0-2.884-2.884h-9.232zm0 2.143h9.238a.74.74 0 0 1 .736.74v7.09a.742.742 0 0 1-.74.742h-9.233a.742.742 0 0 1-.741-.741v-7.09a.74.74 0 0 1 .74-.74zM6.43 19.286v5.688a2.888 2.888 0 0 0 2.883 2.883h7.83v-2.143h-7.83a.742.742 0 0 1-.74-.74v-5.688H6.428z" fill="#231F20"/></svg>