<svg width="29" height="40" fill="none" xmlns="http://www.w3.org/2000/svg"><path d="M28.143 10.429l-10-10C18 .286 17.857.143 17.714.143 17.571 0 17.286 0 17.143 0H4.286C1.857 0 0 1.857 0 4.286v31.428C0 38.143 1.857 40 4.286 40h20c2.428 0 4.285-1.857 4.285-4.286V11.43c0-.143 0-.429-.142-.572 0-.143-.143-.286-.286-.428zM18.57 4.857L23.714 10H20c-.857 0-1.429-.571-1.429-1.429V4.857zm7.143 30.857c0 .857-.571 1.429-1.428 1.429h-20c-.857 0-1.429-.572-1.429-1.429V4.286c0-.857.572-1.429 1.429-1.429h11.428v5.714c0 2.429 1.857 4.286 4.286 4.286h5.714v22.857z" fill="#17BEBB"/></svg>