<svg width="27" height="27" fill="none" xmlns="http://www.w3.org/2000/svg"><path d="M26.5 13.25c0 7.318-5.932 13.25-13.25 13.25C5.933 26.5 0 20.568 0 13.25 0 5.933 5.933 0 13.25 0 20.568 0 26.5 5.933 26.5 13.25z" fill="#17BEBB"/><path d="M7.015 9.353s0-1.559 1.558-1.559c1.56 0 1.56 1.559 1.56 1.559v1.559s0 1.559-1.56 1.559c-1.558 0-1.558-1.56-1.558-1.56V9.354zm9.353 0s0-1.559 1.559-1.559c1.558 0 1.558 1.559 1.558 1.559v1.559s0 1.559-1.558 1.559c-1.56 0-1.56-1.56-1.56-1.56V9.354zm4.158 7.505a.39.39 0 00-.495-.023c-.03.023-3.057 2.26-6.78 2.26-3.715 0-6.752-2.237-6.782-2.26a.39.39 0 00-.568.512c.1.168 2.507 4.087 7.35 4.087 4.84 0 7.249-3.919 7.348-4.087a.389.389 0 00-.073-.49z" fill="#0A4847"/></svg>