<svg width="30" height="30" fill="none" xmlns="http://www.w3.org/2000/svg"><path d="M15 0C6.717 0 0 6.717 0 15c0 8.283 6.717 15 15 15 8.283 0 15-6.717 15-15 0-8.283-6.717-15-15-15zm7.5 15a7.52 7.52 0 01-7.5 7.5A7.523 7.523 0 017.5 15 7.527 7.527 0 0115 7.5a7.523 7.523 0 017.5 7.5zm-3.98-7.806A8.503 8.503 0 0015 6.429a8.503 8.503 0 00-3.52.765L8.32 4.035A12.757 12.757 0 0115 2.143c2.448 0 4.73.7 6.68 1.892l-3.16 3.159zM7.195 18.52l-3.159 3.158A12.754 12.754 0 012.143 15c0-2.448.7-4.73 1.892-6.68l3.159 3.16A8.52 8.52 0 006.429 15a8.52 8.52 0 00.765 3.52zm4.285 4.285a8.503 8.503 0 003.521.765 8.503 8.503 0 003.52-.765l3.16 3.159A12.756 12.756 0 0115 27.857c-2.448 0-4.73-.7-6.68-1.892l3.16-3.159zM22.806 11.48l3.159-3.158A12.754 12.754 0 0127.857 15c0 2.448-.7 4.73-1.892 6.68l-3.159-3.16a8.519 8.519 0 00.765-3.52 8.519 8.519 0 00-.765-3.52z" fill="#000"/></svg>