<svg width="27" height="27" fill="none" xmlns="http://www.w3.org/2000/svg"><path d="M26.5 13.25c0 7.318-5.932 13.25-13.25 13.25C5.933 26.5 0 20.568 0 13.25 0 5.933 5.933 0 13.25 0 20.568 0 26.5 5.933 26.5 13.25z" fill="#A7A7A7"/><path d="M10.132 12.08c0 1.508-.872 2.729-1.948 2.729s-1.949-1.22-1.949-2.728c0-1.507.873-2.728 1.949-2.728s1.948 1.221 1.948 2.728zm10.133 0c0 1.508-.872 2.729-1.949 2.729-1.076 0-1.948-1.22-1.948-2.728 0-1.507.872-2.728 1.948-2.728 1.077 0 1.949 1.221 1.949 2.728zm-1.559 7.405H7.794a.78.78 0 110-1.558h10.912a.779.779 0 110 1.558z" fill="#222"/></svg>