<svg width="64" height="64" fill="none" xmlns="http://www.w3.org/2000/svg"><path d="M34.667 21.333a8 8 0 018 8 2.667 2.667 0 105.333 0A13.334 13.334 0 0034.667 16a2.667 2.667 0 000 5.333z" fill="#000"/><path d="M34.667 10.667a18.666 18.666 0 0118.666 18.666 2.667 2.667 0 105.334 0 24 24 0 00-24-24 2.667 2.667 0 000 5.334zM58 42.427a2.667 2.667 0 00-1.92-1.734l-16-3.653a2.666 2.666 0 00-2.453.693c-.374.347-.4.374-2.134 3.68a26.427 26.427 0 01-12.986-13.04c3.386-1.706 3.413-1.706 3.76-2.106a2.668 2.668 0 00.693-2.454L23.307 8a2.666 2.666 0 00-1.734-1.92 10.108 10.108 0 00-1.92-.48 10.507 10.507 0 00-2.053-.267A12.267 12.267 0 005.333 17.6 41.12 41.12 0 0046.4 58.667 12.266 12.266 0 0058.667 46.4c0-.679-.053-1.356-.16-2.027A11.582 11.582 0 0058 42.427z" fill="#000"/></svg>