<svg width="33" height="40" fill="none" xmlns="http://www.w3.org/2000/svg"><path d="M33 16.503a16.5 16.5 0 10-19.673 16.189v2.85h-3.173a.635.635 0 00-.635.634v1.904h-.634a.635.635 0 000 1.27h15.23a.635.635 0 100-1.27h-.634v-1.904a.635.635 0 00-.635-.635h-3.173v-2.849A16.5 16.5 0 0033 16.503zm-31.73 0a15.23 15.23 0 1130.46 0 15.23 15.23 0 01-30.46 0zM22.211 38.08H10.789v-1.27h11.423v1.27zm-3.808-2.538h-3.808v-2.653c1.265.152 2.543.152 3.808 0v2.652zm4.004-9.006a.635.635 0 00.972-.318.634.634 0 000-.392l-2.254-6.829 5.896-4.226a.634.634 0 00-.368-1.15h-7.298l-2.221-6.834a.635.635 0 00-1.206 0l-2.285 6.835H6.346a.635.635 0 00-.368 1.149l5.896 4.226-2.253 6.829a.635.635 0 00.97.71L16.5 22.31l5.908 4.226zm-10.985-2.164l1.79-5.426a.634.634 0 00-.235-.71l-4.67-3.345h5.78a.635.635 0 00.635-.438L16.5 9.008l1.796 5.445a.635.635 0 00.635.438h5.78l-4.67 3.344a.634.634 0 00-.235.711l1.77 5.426-4.695-3.363a.634.634 0 00-.736 0l-4.722 3.363z" fill="#000"/></svg>