<svg width="20" height="23" fill="none" xmlns="http://www.w3.org/2000/svg"><path d="M19 7.142h-2V1.497c0-.3-.105-.586-.293-.798A.946.946 0 0016 .369H4a.946.946 0 00-.707.33A1.207 1.207 0 003 1.497v5.645H1a.946.946 0 00-.707.33 1.207 1.207 0 00-.293.8v10.16c0 .3.105.587.293.799.187.211.442.33.707.33h1.32L2 21.64a1.27 1.27 0 00.026.485c.04.158.11.305.204.429.095.125.213.226.346.294a.903.903 0 00.424.101h14a.906.906 0 00.418-.103c.132-.069.248-.168.342-.292.095-.124.165-.27.204-.429a1.27 1.27 0 00.026-.485l-.31-2.078H19c.265 0 .52-.119.707-.33.188-.212.293-.5.293-.799V8.272c0-.3-.105-.587-.293-.8a.946.946 0 00-.707-.33zM5 2.626h10v4.516H5V2.626zM15.82 20.69H4.18l.17-1.129.33-2.258.17-1.129h10.3l.17 1.13.33 2.257.17 1.13zM18 17.303h-.65L17 14.864a1.17 1.17 0 00-.344-.683.933.933 0 00-.656-.265H4a.933.933 0 00-.656.265 1.17 1.17 0 00-.344.684l-.35 2.438H2V9.4h16v7.903z" fill="#fff"/><path d="M15 12.787c.552 0 1-.505 1-1.129 0-.623-.448-1.129-1-1.129s-1 .506-1 1.13c0 .623.448 1.128 1 1.128z" fill="#fff"/></svg>