<svg width="33" height="33" fill="none" xmlns="http://www.w3.org/2000/svg"><path d="M17.62 2.245a.688.688 0 00-.688.688v3.2a.688.688 0 001.375 0v-3.2a.688.688 0 00-.688-.688zm2.721 0a.688.688 0 00-.688.688v3.2a.688.688 0 001.376 0v-3.2a.688.688 0 00-.688-.688zm2.722 0a.688.688 0 00-.688.688v3.2a.688.688 0 001.375 0v-3.2a.688.688 0 00-.687-.688zm2.721 0a.688.688 0 00-.687.688v3.2a.688.688 0 001.375 0v-3.2a.688.688 0 00-.688-.688zm2.722 0a.688.688 0 00-.687.688v3.2a.688.688 0 001.375 0v-3.2a.688.688 0 00-.688-.688zm-21.869.12h-2.96a.688.688 0 00-.688.687v2.961c0 .38.308.687.688.687h2.96c.38 0 .688-.307.688-.687v-2.96a.688.688 0 00-.688-.688zm-.687 2.96H4.364V3.74H5.95v1.585zm6.523-2.683h-2.407a.688.688 0 00-.687.687v2.407c0 .38.308.687.687.687h2.407c.38 0 .687-.308.687-.687V3.329a.688.688 0 00-.687-.687zm-.688 2.406h-1.031V4.017h1.031v1.031zm5.834 9.462c.38 0 .688-.307.688-.687v-3.2a.688.688 0 10-1.375 0v3.2c0 .38.308.687.687.687zm2.722 0c.38 0 .688-.307.688-.687v-3.2a.688.688 0 10-1.375 0v3.2c0 .38.307.687.687.687zm2.722 0c.38 0 .687-.307.687-.687v-3.2a.688.688 0 10-1.375 0v3.2c0 .38.308.687.688.687zm2.721 0c.38 0 .688-.307.688-.687v-3.2a.688.688 0 00-1.375 0v3.2c0 .38.308.687.687.687zm2.722 0c.38 0 .688-.307.688-.687v-3.2a.688.688 0 00-1.375 0v3.2c0 .38.307.687.687.687zm-24.83-.12h2.961c.38 0 .688-.307.688-.687v-2.96a.688.688 0 00-.688-.688h-2.96a.688.688 0 00-.688.688v2.96c0 .38.308.688.688.688zm.688-2.96H5.95v1.586H4.364V11.43zm5.702 2.684h2.407c.38 0 .687-.308.687-.688V11.02a.688.688 0 00-.687-.688h-2.407a.688.688 0 00-.687.688v2.406c0 .38.308.688.687.688zm.688-2.407h1.031v1.032h-1.031v-1.032z" fill="#000"/><path d="M.688 24.446h15.121v3.413a2.422 2.422 0 00-1.627 1.626H9.584a.688.688 0 000 1.375h4.596a2.424 2.424 0 002.318 1.743c1.1 0 2.02-.739 2.318-1.743h4.6a.688.688 0 000-1.375h-4.602a2.421 2.421 0 00-1.63-1.627v-3.412h15.128c.38 0 .688-.308.688-.688V.688A.688.688 0 0032.312 0H.689A.688.688 0 000 .688v23.07c0 .38.308.688.688.688zm16.863 5.73a1.054 1.054 0 01-2.106.005l.002-.008-.001-.006a1.054 1.054 0 011.049-1.044h.004c.58 0 1.052.472 1.052 1.052zM31.625 15.38H1.375V9.065h30.25v6.316zm0 7.69H1.375v-6.315h30.25v6.315zM1.375 1.375h30.25V7.69H1.375V1.375z" fill="#000"/><path d="M17.62 22.2a.687.687 0 00.687-.687v-3.2a.687.687 0 10-1.375 0v3.2c0 .38.308.688.687.688zm2.721 0c.38 0 .688-.307.688-.687v-3.2a.687.687 0 10-1.375 0v3.2c0 .38.307.688.687.688zm2.722 0c.38 0 .687-.307.687-.687v-3.2a.687.687 0 10-1.375 0v3.2c0 .38.308.688.688.688zm2.721 0c.38 0 .688-.307.688-.687v-3.2a.688.688 0 00-1.375 0v3.2c0 .38.308.688.687.688zm2.722 0c.38 0 .688-.307.688-.687v-3.2a.688.688 0 00-1.375 0v3.2c0 .38.307.688.687.688zm-24.83-.119h2.961c.38 0 .688-.308.688-.687v-2.96a.688.688 0 00-.688-.688h-2.96a.688.688 0 00-.688.687v2.96c0 .38.308.688.688.688zm.688-2.96H5.95v1.585H4.364v-1.585zm5.702 2.683h2.407c.38 0 .687-.308.687-.688V18.71a.687.687 0 00-.687-.687h-2.407a.688.688 0 00-.687.687v2.406c0 .38.308.688.687.688zm.688-2.406h1.031v1.031h-1.031v-1.031z" fill="#000"/></svg>