<svg width="32" height="33" fill="none" xmlns="http://www.w3.org/2000/svg"><path d="M26.035 0c-.47 0-.936.065-1.387.186V.184a5.382 5.382 0 00-2.424 1.396c-1.313 1.314-1.709 3.133-1.385 4.828l-5.025 5.023a1.833 1.833 0 00-1.135-.407c-.467 0-.939.18-1.295.536l-.53.53-6.98-6.98.301-.301a.542.542 0 00.153-.46l-.227-1.595a.542.542 0 00-.222-.364L2.689.112a.542.542 0 00-.303-.104v.003a.542.542 0 00-.394.158L.168 1.991a.542.542 0 00-.057.7l2.277 3.19c.086.12.217.2.364.222l1.595.227c.17.025.34-.032.462-.153l.299-.3 6.98 6.98-.528.527a1.833 1.833 0 00-.129 2.43L6.404 20.84c-1.694-.323-3.513.073-4.825 1.385a5.405 5.405 0 00-1.394 5.22.542.542 0 00.906.243l2.733-2.735 2.006.67.667 2.006-2.732 2.733a.543.543 0 00.243.906 5.412 5.412 0 005.22-1.393c1.313-1.314 1.709-3.133 1.385-4.828l4.1-4.1 10.52 10.52c.71.71 1.877.711 2.588 0l3.646-3.645a1.84 1.84 0 000-2.591l-10.52-10.518 4.099-4.099c1.695.323 3.512-.072 4.826-1.385h.002a5.405 5.405 0 001.394-5.22.542.542 0 00-.907-.244L27.628 6.5l-2.006-.667-.67-2.006 2.736-2.733a.542.542 0 00-.244-.907A5.402 5.402 0 0026.035 0zm-.57 1.195c.183.011.366.036.549.036l-2.065 2.065a.543.543 0 00-.13.555l.86 2.58a.543.543 0 00.344.344l2.58.86a.542.542 0 00.555-.132L30.22 5.44c-.01 1.116-.306 2.213-1.116 3.023-1.13 1.128-2.718 1.483-4.16 1.101a.543.543 0 00-.524.142L9.705 24.423a.543.543 0 00-.142.523c.381 1.443.027 3.03-1.102 4.16-.812.81-1.907 1.107-3.023 1.117l2.064-2.063a.542.542 0 00.13-.555l-.86-2.58a.543.543 0 00-.342-.344l-2.58-.86a.542.542 0 00-.556.131L1.23 26.018c.01-1.117.305-2.214 1.116-3.025 1.13-1.13 2.72-1.483 4.163-1.102a.542.542 0 00.521-.142L21.748 7.033a.542.542 0 00.142-.523c-.382-1.444-.03-3.032 1.101-4.163a4.302 4.302 0 011.936-1.116c.175-.047.356-.048.538-.036zM2.432 1.26L5.06 3.137l.157 1.098-.492.491-.491.492-1.097-.157L1.26 2.434 2.432 1.26zM14.68 12.11a.73.73 0 01.355.104l-2.821 2.821a.719.719 0 01.114-.883l1.824-1.824a.732.732 0 01.528-.218zm5.501 3.372L30.7 26a.735.735 0 010 1.057l-3.646 3.646c-.3.3-.755.3-1.055 0l-10.52-10.52 1.055-1.055 10.52 10.52.767-.767-10.52-10.52 1.057-1.057 10.52 10.52.767-.767-10.52-10.52 1.055-1.055z" fill="#000"/></svg>