<svg width="30" height="35" fill="none" xmlns="http://www.w3.org/2000/svg"><path d="M28.743 9.995h-7.496V6.247a6.247 6.247 0 1 0-12.494 0v3.748H1.257a1.25 1.25 0 0 0-1.25 1.387l2.5 22.488a1.25 1.25 0 0 0 1.249 1.112h22.488a1.249 1.249 0 0 0 1.25-1.112l2.498-22.488a1.25 1.25 0 0 0-1.249-1.387zM11.252 6.247a3.748 3.748 0 0 1 7.496 0v3.748h-7.496V6.247zM25.12 32.484H4.88l-2.224-19.99h24.688l-2.224 19.99z" fill="#000"/><path d="M18.436 17.279a6.248 6.248 0 0 0-2.187-.912v-1.375a1.25 1.25 0 0 0-2.498 0v1.375a6.248 6.248 0 0 0-2.187.912l-.974-.975a1.25 1.25 0 0 0-1.762 1.762l.975.974a6.246 6.246 0 0 0-.925 2.2H7.504a1.25 1.25 0 0 0 0 2.498h1.374c.162.78.471 1.522.912 2.186l-.974.975a1.25 1.25 0 1 0 1.761 1.761l.975-.974c.667.447 1.413.76 2.199.924v1.375a1.25 1.25 0 0 0 2.498 0V28.61a6.247 6.247 0 0 0 2.187-.912l.974.975a1.25 1.25 0 0 0 1.762-1.762l-.975-.974c.447-.667.76-1.414.925-2.199h1.374a1.25 1.25 0 1 0 0-2.499h-1.374a6.246 6.246 0 0 0-.912-2.186l.974-.975a1.25 1.25 0 0 0-1.761-1.761l-.987.962zM15 26.237a3.748 3.748 0 1 1 0-7.497 3.748 3.748 0 0 1 0 7.497z" fill="#000"/></svg>