<svg width="33" height="34" fill="none" xmlns="http://www.w3.org/2000/svg"><path d="M30.76 23.493a4.021 4.021 0 001.454-3.064 3.94 3.94 0 00-3.928-3.929 3.94 3.94 0 00-3.929 3.929c0 1.217.59 2.357 1.454 3.064-1.257.786-2.122 2.082-2.24 3.653l-6.285-4.753v-5.107h3.143a.788.788 0 00.785-.786V11a4.72 4.72 0 00-2.239-4.007 4.021 4.021 0 001.454-3.064A3.94 3.94 0 0016.5 0a3.94 3.94 0 00-3.929 3.929c0 1.217.59 2.357 1.454 3.064A4.72 4.72 0 0011.785 11v5.5c0 .432.354.786.786.786h3.143v5.107L9.43 27.107c-.118-1.532-.983-2.868-2.24-3.653.865-.668 1.454-1.808 1.454-3.025a3.94 3.94 0 00-3.93-3.929 3.94 3.94 0 00-3.928 3.929c0 1.217.589 2.357 1.453 3.064A4.72 4.72 0 000 27.5V33c0 .432.354.786.786.786h7.857A.788.788 0 009.429 33v-3.929l7.071-5.303 7.071 5.303V33c0 .432.354.786.786.786h7.857A.788.788 0 0033 33v-5.5a4.72 4.72 0 00-2.24-4.007zM4.715 18.07a2.364 2.364 0 012.357 2.358 2.364 2.364 0 01-2.357 2.357 2.364 2.364 0 01-2.357-2.357 2.364 2.364 0 012.357-2.358zm3.143 14.143H1.571V27.5a3.152 3.152 0 013.143-3.143A3.152 3.152 0 017.857 27.5v4.714zM16.5 1.571a2.364 2.364 0 012.357 2.358A2.364 2.364 0 0116.5 6.286a2.364 2.364 0 01-2.357-2.357A2.364 2.364 0 0116.5 1.57zm-3.143 14.143V11A3.152 3.152 0 0116.5 7.857 3.152 3.152 0 0119.643 11v4.714h-6.286zm14.929 2.357a2.364 2.364 0 012.357 2.358 2.364 2.364 0 01-2.357 2.357 2.364 2.364 0 01-2.357-2.357 2.364 2.364 0 012.357-2.358zm3.143 14.143h-6.286V27.5a3.152 3.152 0 013.143-3.143 3.152 3.152 0 013.143 3.143v4.714z" fill="#000"/></svg>