<svg width="30" height="34" fill="none" xmlns="http://www.w3.org/2000/svg"><path d="M15 33.336c-.104 0-.207-.016-.307-.047C.88 28.914-.457 21.909.854 16.804 2.171 11.677 2.446 8.68.297 6.531a1.015 1.015 0 01.01-1.445L5.243.287a1.015 1.015 0 011.668.399c.035.101.942 2.633 3.463 2.468A4.406 4.406 0 0014.065.62 1.02 1.02 0 0115 .003h.006a1.011 1.011 0 01.932.623 4.407 4.407 0 003.689 2.528C22.184 3.32 23.08.712 23.089.686a1.015 1.015 0 011.668-.399l4.936 4.8a1.015 1.015 0 01.01 1.444c-2.15 2.149-1.874 5.145-.557 10.273 1.31 5.105-.026 12.11-13.84 16.485a1.01 1.01 0 01-.306.047zM2.41 5.872c2.3 3.024 1.552 6.986.41 11.438C1.245 23.436 5.343 28.127 15 31.255c9.656-3.128 13.753-7.82 12.18-13.947-1.143-4.452-1.892-8.413.409-11.438l-3.271-3.18a5.356 5.356 0 01-4.803 2.49A6.178 6.178 0 0115 2.888a6.178 6.178 0 01-4.515 2.295 5.412 5.412 0 01-4.803-2.49l-3.27 3.18z" fill="#222"/><path d="M15 17.764a2.897 2.897 0 11-.001-5.795 2.897 2.897 0 010 5.795zm0-3.766a.868.868 0 100 1.736.868.868 0 000-1.736z" fill="#222"/><path d="M15 22.74a1.015 1.015 0 01-1.015-1.016v-4.267a1.015 1.015 0 012.03 0v4.267A1.015 1.015 0 0115 22.74z" fill="#222"/></svg>