<svg width="27" height="27" fill="none" xmlns="http://www.w3.org/2000/svg"><path d="M26.5 13.25c0 7.318-5.932 13.25-13.25 13.25C5.933 26.5 0 20.568 0 13.25 0 5.933 5.933 0 13.25 0 20.568 0 26.5 5.933 26.5 13.25z" fill="#F58F8F"/><path d="M12.714 12.948a.39.39 0 00-.475-.011c-.01.008-.983.703-2.885.703-1.903 0-2.876-.696-2.885-.702a.39.39 0 00-.59.47c.048.106 1.17 2.57 3.475 2.57s3.427-2.464 3.474-2.57a.39.39 0 00-.114-.46zm7.795 0a.39.39 0 00-.476-.011c-.009.008-.982.703-2.885.703-1.902 0-2.877-.696-2.884-.702a.39.39 0 00-.59.47c.046.106 1.169 2.57 3.474 2.57 2.306 0 3.427-2.464 3.474-2.57a.39.39 0 00-.113-.46zm-4.141 8.096h-6.236a.78.78 0 110-1.559h6.236a.779.779 0 110 1.56zM3.897 10.132a.78.78 0 01-.003-1.559c.12-.001 2.78-.067 4.835-2.805a.78.78 0 011.248.935c-2.543 3.39-5.937 3.43-6.08 3.43zm18.706 0c-.144 0-3.536-.039-6.08-3.43a.779.779 0 111.247-.934c2.058 2.744 4.724 2.805 4.838 2.805a.781.781 0 01.772.784.777.777 0 01-.777.775z" fill="#664500"/></svg>