<svg width="82" height="41" fill="none" xmlns="http://www.w3.org/2000/svg"><path d="M31.307 39.097V14.993c0-.75.56-1.269 1.234-1.269H38.6c.673 0 1.234.52 1.234 1.269v24.104c0 .692-.56 1.269-1.234 1.269h-6.06c-.672 0-1.233-.577-1.233-1.269zm4.207-29.063c-2.693 0-4.825-2.25-4.825-4.96C30.69 2.308 32.822 0 35.514 0s4.881 2.307 4.881 5.075c0 2.71-2.188 4.959-4.88 4.959zm7.988 29.063V1.269c0-.635.561-1.269 1.235-1.269h6.059c.673 0 1.234.634 1.234 1.269v37.828c0 .692-.561 1.269-1.234 1.269h-6.06c-.673 0-1.234-.577-1.234-1.269zm10.681-12.11c0-7.496 6.115-13.84 13.521-13.84 7.406 0 13.465 6.344 13.465 13.84C81.169 34.6 75.109 41 67.704 41s-13.52-6.4-13.52-14.013zm8.08 0c0 3.114 2.411 5.767 5.441 5.767 2.974 0 5.386-2.653 5.386-5.767 0-3.056-2.412-5.65-5.386-5.65-3.03 0-5.442 2.594-5.442 5.65z" fill="#2E282A"/><path d="M16.951 13.667h9.556a1 1 0 01.842 1.54L11.397 40.034a1 1 0 01-.841.46H1a1 1 0 01-.841-1.541L16.11 14.126a1 1 0 01.841-.46z" fill="#fff"/><path d="M10.556 13.667H1a1 1 0 00-.841 1.54L16.11 40.034a1 1 0 00.841.46h9.556a1 1 0 00.842-1.541L11.397 14.126a1 1 0 00-.841-.46z" fill="#17BEBB"/><path fill-rule="evenodd" clip-rule="evenodd" d="M16.951 13.667h9.556a1 1 0 01.842 1.54L11.397 40.034a1 1 0 01-.841.46H1a1 1 0 01-.841-1.541L16.11 14.126a1 1 0 01.841-.46z" fill="#2E282A"/></svg>