<svg width="20" height="21" fill="none" xmlns="http://www.w3.org/2000/svg"><path d="M2.357 13.857a7.999 7.999 0 005.185 2.361 7.981 7.981 0 005.434-1.696l5.318 5.365a.995.995 0 001.402-.012 1.013 1.013 0 00.012-1.415l-5.318-5.364A8.16 8.16 0 0013.368 2.03 7.998 7.998 0 007.794.004a8.007 8.007 0 00-5.437 2.377A8.118 8.118 0 00.613 5.014a8.174 8.174 0 000 6.21c.404.986.997 1.88 1.744 2.633zM3.77 3.81a6.003 6.003 0 017.63-.758 6.092 6.092 0 012.426 3.299 6.15 6.15 0 01-.2 4.102 6.077 6.077 0 01-2.734 3.043 5.997 5.997 0 01-4.027.604 6.034 6.034 0 01-3.493-2.112A6.129 6.129 0 012 8.121a6.099 6.099 0 01.456-2.335c.304-.74.75-1.413 1.314-1.978v.002z" fill="#000"/></svg>