<svg width="32" height="32" viewBox="0 0 32 32" fill="none" xmlns="http://www.w3.org/2000/svg">
<path d="M16 0C7.164 0 0 7.164 0 16C0 24.836 7.164 32 16 32C24.836 32 32 24.836 32 16C32 7.164 24.836 0 16 0ZM16 30C8.28 30 2 23.72 2 16C2 8.28 8.28 2 16 2C23.72 2 30 8.28 30 16C30 23.72 23.72 30 16 30ZM14.124 10.938C14.124 10.1259 13.8014 9.34707 13.2272 8.77284C12.6529 8.1986 11.8741 7.876 11.062 7.876C10.2499 7.876 9.47108 8.1986 8.89684 8.77284C8.3226 9.34707 8 10.1259 8 10.938C8 11.7501 8.3226 12.5289 8.89684 13.1032C9.47108 13.6774 10.2499 14 11.062 14C11.8741 14 12.6529 13.6774 13.2272 13.1032C13.8014 12.5289 14.124 11.7501 14.124 10.938ZM10 10.938C9.9957 10.7957 10.02 10.654 10.0715 10.5213C10.123 10.3886 10.2006 10.2676 10.2998 10.1655C10.3989 10.0634 10.5176 9.98219 10.6487 9.92677C10.7798 9.87136 10.9207 9.84284 11.063 9.8429C11.2054 9.84297 11.3462 9.87162 11.4773 9.92716C11.6083 9.9827 11.7269 10.064 11.826 10.1662C11.925 10.2684 12.0025 10.3895 12.0539 10.5223C12.1052 10.655 12.1294 10.7967 12.125 10.939C12.1164 11.2151 12.0006 11.4771 11.8022 11.6693C11.6038 11.8616 11.3383 11.969 11.062 11.9689C10.7857 11.9688 10.5204 11.8611 10.3221 11.6686C10.1239 11.4762 10.0083 11.2142 10 10.938V10.938ZM20.938 17.876C20.1259 17.876 19.3471 18.1986 18.7728 18.7728C18.1986 19.3471 17.876 20.1259 17.876 20.938C17.876 21.7501 18.1986 22.5289 18.7728 23.1032C19.3471 23.6774 20.1259 24 20.938 24C21.7501 24 22.5289 23.6774 23.1032 23.1032C23.6774 22.5289 24 21.7501 24 20.938C24 20.1259 23.6774 19.3471 23.1032 18.7728C22.5289 18.1986 21.7501 17.876 20.938 17.876V17.876ZM20.938 22C20.7957 22.0043 20.654 21.98 20.5213 21.9285C20.3886 21.877 20.2676 21.7994 20.1655 21.7002C20.0634 21.6011 19.9822 21.4824 19.9268 21.3513C19.8714 21.2202 19.8428 21.0793 19.8429 20.937C19.843 20.7946 19.8716 20.6538 19.9272 20.5227C19.9827 20.3917 20.064 20.2731 20.1662 20.174C20.2685 20.075 20.3895 19.9975 20.5223 19.9461C20.655 19.8948 20.7967 19.8706 20.939 19.875C21.2151 19.8836 21.4771 19.9994 21.6693 20.1978C21.8616 20.3962 21.969 20.6617 21.9689 20.938C21.9688 21.2143 21.8611 21.4796 21.6686 21.6779C21.4762 21.8761 21.2142 21.9917 20.938 22V22ZM22.708 9.292C22.5205 9.10453 22.2662 8.99921 22.001 8.99921C21.7358 8.99921 21.4815 9.10453 21.294 9.292L9.294 21.292C9.20102 21.3848 9.12725 21.4951 9.07688 21.6165C9.02651 21.7378 9.00054 21.8679 9.00044 21.9993C9.00026 22.2647 9.10549 22.5192 9.293 22.707C9.48051 22.8948 9.73493 23.0004 10.0003 23.0006C10.2657 23.0007 10.5202 22.8955 10.708 22.708L22.708 10.708C23.098 10.316 23.098 9.684 22.708 9.292V9.292Z" fill="black"/>
</svg>
