<svg width="30" height="44" viewBox="0 0 30 44" fill="none" xmlns="http://www.w3.org/2000/svg">
<path d="M2.1453 42.263C10.3331 44.5791 19.0029 44.579 27.1907 42.2626C27.8061 42.0875 28.3479 41.7172 28.7346 41.2074C29.1212 40.6977 29.3318 40.0761 29.3346 39.4362V13.2006C29.3003 11.1792 27.5837 10.0558 25.6678 10.2671V8.80037C25.6671 8.21707 25.4351 7.65784 25.0227 7.24538C24.6102 6.83292 24.051 6.60092 23.4677 6.60028H22.0009V2.20009C22.0003 1.61679 21.7683 1.05756 21.3558 0.645096C20.9434 0.232636 20.3841 0.000636704 19.8008 0H9.53374C8.95043 0.000636704 8.3912 0.232636 7.97874 0.645096C7.56628 1.05756 7.33428 1.61679 7.33364 2.20009V6.60028H5.86692C5.28361 6.60092 4.72438 6.83292 4.31192 7.24538C3.89946 7.65784 3.66746 8.21707 3.66682 8.80037V10.2671C1.75042 10.0606 0.0371522 11.1697 0 13.2006V39.4334C0.00269333 40.0738 0.213353 40.696 0.600266 41.2063C0.987178 41.7167 1.5294 42.0875 2.1453 42.263ZM23.4677 8.06701C23.6621 8.06726 23.8485 8.14461 23.986 8.28209C24.1234 8.41956 24.2008 8.60595 24.201 8.80037V10.2671H22.0009V8.06701H23.4677ZM8.80037 2.20009C8.80063 2.00567 8.87797 1.81928 9.01545 1.68181C9.15293 1.54433 9.33932 1.46698 9.53374 1.46673H19.8008C19.9953 1.46698 20.1817 1.54433 20.3191 1.68181C20.4566 1.81928 20.534 2.00567 20.5342 2.20009V10.2671H8.80037V2.20009ZM5.13355 8.80037C5.1338 8.60595 5.21115 8.41956 5.34863 8.28209C5.48611 8.14461 5.67249 8.06726 5.86692 8.06701H7.33364V10.2671H5.13355V8.80037ZM1.46673 13.2006C1.46712 12.8117 1.62177 12.4388 1.89675 12.1639C2.17173 11.8889 2.54458 11.7342 2.93346 11.7338H26.4011C26.79 11.7342 27.1628 11.8889 27.4378 12.1639C27.7128 12.4388 27.8675 12.8117 27.8678 13.2006V39.4362C27.8661 39.7569 27.7601 40.0684 27.5659 40.3236C27.3716 40.5788 27.0997 40.7639 26.7911 40.8511C18.8636 43.086 10.4725 43.0861 2.54493 40.8514C2.23578 40.7639 1.96345 40.5783 1.76898 40.3225C1.57451 40.0667 1.46843 39.7547 1.46673 39.4334V13.2006Z" fill="black"/>
<path d="M7.33364 22.7343H22.0009C22.5842 22.7337 23.1435 22.5017 23.5559 22.0892C23.9684 21.6767 24.2004 21.1175 24.201 20.5342V16.134C24.2004 15.5507 23.9684 14.9915 23.5559 14.579C23.1435 14.1666 22.5842 13.9346 22.0009 13.9339H7.33364C6.75033 13.9346 6.1911 14.1666 5.77864 14.579C5.36618 14.9915 5.13418 15.5507 5.13354 16.134V20.5342C5.13418 21.1175 5.36618 21.6767 5.77864 22.0892C6.1911 22.5017 6.75033 22.7337 7.33364 22.7343ZM6.60027 16.134C6.60052 15.9396 6.67787 15.7532 6.81535 15.6157C6.95283 15.4783 7.13921 15.4009 7.33364 15.4007H22.0009C22.1954 15.4009 22.3817 15.4783 22.5192 15.6157C22.6567 15.7532 22.734 15.9396 22.7343 16.134V20.5342C22.734 20.7286 22.6567 20.915 22.5192 21.0525C22.3817 21.19 22.1954 21.2673 22.0009 21.2676H7.33364C7.13921 21.2673 6.95283 21.19 6.81535 21.0525C6.67787 20.915 6.60052 20.7286 6.60027 20.5342V16.134ZM14.6673 24.9344C13.8938 24.9413 13.1544 25.2534 12.6099 25.8028C12.0654 26.3522 11.76 27.0944 11.76 27.8679C11.76 28.6414 12.0655 29.3836 12.61 29.9329C13.1545 30.4823 13.8939 30.7944 14.6673 30.8013C15.4408 30.7944 16.1802 30.4823 16.7247 29.9329C17.2692 29.3835 17.5747 28.6413 17.5747 27.8678C17.5746 27.0943 17.2692 26.3522 16.7247 25.8028C16.1802 25.2534 15.4407 24.9413 14.6673 24.9344ZM14.6673 29.3346C14.282 29.329 13.9143 29.172 13.6438 28.8975C13.3733 28.6231 13.2217 28.2532 13.2217 27.8678C13.2217 27.4825 13.3733 27.1126 13.6439 26.8381C13.9144 26.5637 14.282 26.4067 14.6673 26.4011C15.0527 26.4067 15.4203 26.5637 15.6908 26.8382C15.9613 27.1126 16.113 27.4825 16.1129 27.8679C16.1129 28.2533 15.9613 28.6231 15.6908 28.8976C15.4203 29.172 15.0526 29.329 14.6673 29.3346ZM6.60027 30.8013C7.37373 30.7944 8.11315 30.4823 8.65763 29.9329C9.20211 29.3835 9.50759 28.6413 9.50758 27.8678C9.50757 27.0943 9.20208 26.3522 8.65759 25.8028C8.11309 25.2534 7.37366 24.9413 6.60021 24.9344C5.82675 24.9413 5.08733 25.2534 4.54285 25.8028C3.99837 26.3522 3.69289 27.0944 3.6929 27.8679C3.69291 28.6414 3.9984 29.3836 4.54289 29.9329C5.08739 30.4823 5.82682 30.7944 6.60027 30.8013ZM6.60027 26.4011C6.98559 26.4067 7.35323 26.5637 7.62374 26.8382C7.89424 27.1126 8.04588 27.4825 8.04587 27.8679C8.04586 28.2533 7.89421 28.6231 7.62369 28.8976C7.35318 29.172 6.98553 29.329 6.60021 29.3346C6.21489 29.329 5.84724 29.172 5.57674 28.8975C5.30624 28.6231 5.1546 28.2532 5.15461 27.8678C5.15462 27.4825 5.30627 27.1126 5.57679 26.8381C5.8473 26.5637 6.21495 26.4067 6.60027 26.4011ZM19.8008 27.8679C19.8078 28.6413 20.1199 29.3807 20.6693 29.9252C21.2186 30.4697 21.9608 30.7752 22.7343 30.7752C23.5078 30.7752 24.25 30.4697 24.7994 29.9252C25.3487 29.3807 25.6608 28.6412 25.6678 27.8678C25.6608 27.0943 25.3487 26.3549 24.7993 25.8104C24.2499 25.2659 23.5077 24.9605 22.7343 24.9605C21.9608 24.9605 21.2186 25.266 20.6692 25.8105C20.1198 26.355 19.8077 27.0944 19.8008 27.8679ZM24.201 27.8679C24.1954 28.2532 24.0384 28.6208 23.764 28.8913C23.4895 29.1618 23.1196 29.3135 22.7343 29.3134C22.3489 29.3134 21.979 29.1618 21.7046 28.8913C21.4301 28.6208 21.2731 28.2531 21.2676 27.8678C21.2732 27.4825 21.4302 27.1148 21.7046 26.8443C21.9791 26.5738 22.349 26.4222 22.7343 26.4222C23.1197 26.4222 23.4896 26.5739 23.764 26.8444C24.0385 27.1149 24.1954 27.4825 24.201 27.8679ZM14.6673 33.0014C13.8938 33.0083 13.1544 33.3205 12.6099 33.8698C12.0654 34.4192 11.76 35.1614 11.76 35.9349C11.76 36.7084 12.0655 37.4506 12.61 37.9999C13.1545 38.5493 13.8939 38.8614 14.6673 38.8683C15.4408 38.8614 16.1802 38.5493 16.7247 37.9999C17.2692 37.4505 17.5747 36.7083 17.5747 35.9348C17.5746 35.1613 17.2692 34.4192 16.7247 33.8698C16.1802 33.3204 15.4407 33.0083 14.6673 33.0014ZM14.6673 37.4016C14.282 37.396 13.9143 37.239 13.6438 36.9645C13.3733 36.6901 13.2217 36.3202 13.2217 35.9348C13.2217 35.5495 13.3733 35.1796 13.6439 34.9051C13.9144 34.6307 14.282 34.4737 14.6673 34.4681C15.0527 34.4737 15.4203 34.6307 15.6908 34.9052C15.9613 35.1797 16.113 35.5495 16.1129 35.9349C16.1129 36.3203 15.9613 36.6901 15.6908 36.9646C15.4203 37.239 15.0526 37.396 14.6673 37.4016ZM6.60027 38.8683C7.37373 38.8614 8.11315 38.5493 8.65763 37.9999C9.20211 37.4505 9.50759 36.7083 9.50758 35.9348C9.50757 35.1613 9.20208 34.4192 8.65759 33.8698C8.11309 33.3204 7.37366 33.0083 6.60021 33.0014C5.82675 33.0083 5.08733 33.3205 4.54285 33.8698C3.99837 34.4192 3.69289 35.1614 3.6929 35.9349C3.69291 36.7084 3.9984 37.4506 4.54289 37.9999C5.08739 38.5493 5.82682 38.8614 6.60027 38.8683ZM6.60027 34.4681C6.98559 34.4737 7.35323 34.6307 7.62374 34.9052C7.89424 35.1797 8.04588 35.5495 8.04587 35.9349C8.04586 36.3203 7.89421 36.6901 7.62369 36.9646C7.35318 37.239 6.98553 37.396 6.60021 37.4016C6.21489 37.396 5.84724 37.239 5.57674 36.9645C5.30624 36.6901 5.1546 36.3202 5.15461 35.9348C5.15462 35.5495 5.30627 35.1796 5.57679 34.9051C5.8473 34.6307 6.21495 34.4737 6.60027 34.4681ZM22.7343 33.0014C21.9608 33.0083 21.2214 33.3205 20.6769 33.8698C20.1325 34.4192 19.827 35.1614 19.827 35.9349C19.827 36.7084 20.1325 37.4506 20.677 37.9999C21.2215 38.5493 21.9609 38.8614 22.7344 38.8683C23.5078 38.8614 24.2472 38.5493 24.7917 37.9999C25.3362 37.4505 25.6417 36.7083 25.6417 35.9348C25.6417 35.1613 25.3362 34.4192 24.7917 33.8698C24.2472 33.3204 23.5077 33.0083 22.7343 33.0014ZM22.7343 37.4016C22.349 37.396 21.9813 37.239 21.7108 36.9645C21.4403 36.6901 21.2887 36.3202 21.2887 35.9348C21.2887 35.5495 21.4404 35.1796 21.7109 34.9051C21.9814 34.6307 22.349 34.4737 22.7344 34.4681C23.1197 34.4737 23.4873 34.6307 23.7578 34.9052C24.0283 35.1797 24.18 35.5495 24.18 35.9349C24.1799 36.3203 24.0283 36.6901 23.7578 36.9646C23.4873 37.239 23.1196 37.396 22.7343 37.4016Z" fill="black"/>
</svg>
