<svg width="15" height="12" viewBox="0 0 15 12" fill="none" xmlns="http://www.w3.org/2000/svg">
<path fill-rule="evenodd" clip-rule="evenodd" d="M13.2632 12H1.26316C0.565579 12 0 11.4344 0 10.7368V1.26316C0 0.565579 0.565579 0 1.26316 0H13.2632C13.9607 0 14.5263 0.565579 14.5263 1.26316V10.7368C14.5263 11.4344 13.9607 12 13.2632 12ZM13.8947 1.26316C13.8947 0.914526 13.6118 0.631579 13.2632 0.631579H1.26316C0.914526 0.631579 0.631579 0.914526 0.631579 1.26316V3.15789H13.8947V1.26316ZM13.8947 3.78947H0.631579V10.7368C0.631579 11.0855 0.914526 11.3684 1.26316 11.3684H13.2632C13.6118 11.3684 13.8947 11.0855 13.8947 10.7368V3.78947ZM12.6316 8.21053H12C11.8257 8.21053 11.6842 8.06937 11.6842 7.89474V7.26316C11.6842 7.08884 11.8257 6.94737 12 6.94737H12.6316C12.8062 6.94737 12.9474 7.08884 12.9474 7.26316V7.89474C12.9474 8.06937 12.8062 8.21053 12.6316 8.21053ZM12.6316 6H12C11.8257 6 11.6842 5.85884 11.6842 5.68421V5.05263C11.6842 4.878 11.8257 4.73684 12 4.73684H12.6316C12.8062 4.73684 12.9474 4.878 12.9474 5.05263V5.68421C12.9474 5.85884 12.8062 6 12.6316 6ZM10.1053 8.21053H9.47368C9.29937 8.21053 9.15789 8.06937 9.15789 7.89474V7.26316C9.15789 7.08884 9.29937 6.94737 9.47368 6.94737H10.1053C10.2799 6.94737 10.4211 7.08884 10.4211 7.26316V7.89474C10.4211 8.06937 10.2799 8.21053 10.1053 8.21053ZM10.1053 6H9.47368C9.29937 6 9.15789 5.85884 9.15789 5.68421V5.05263C9.15789 4.878 9.29937 4.73684 9.47368 4.73684H10.1053C10.2799 4.73684 10.4211 4.878 10.4211 5.05263V5.68421C10.4211 5.85884 10.2799 6 10.1053 6ZM7.57895 8.21053H6.94737C6.77274 8.21053 6.63158 8.06937 6.63158 7.89474V7.26316C6.63158 7.08884 6.77274 6.94737 6.94737 6.94737H7.57895C7.75358 6.94737 7.89474 7.08884 7.89474 7.26316V7.89474C7.89474 8.06937 7.75358 8.21053 7.57895 8.21053ZM7.57895 6H6.94737C6.77274 6 6.63158 5.85884 6.63158 5.68421V5.05263C6.63158 4.878 6.77274 4.73684 6.94737 4.73684H7.57895C7.75358 4.73684 7.89474 4.878 7.89474 5.05263V5.68421C7.89474 5.85884 7.75358 6 7.57895 6ZM5.05263 10.4211H4.42105C4.24642 10.4211 4.10526 10.2799 4.10526 10.1053V9.47368C4.10526 9.29905 4.24642 9.15789 4.42105 9.15789H5.05263C5.22726 9.15789 5.36842 9.29905 5.36842 9.47368V10.1053C5.36842 10.2799 5.22726 10.4211 5.05263 10.4211ZM5.05263 8.21053H4.42105C4.24642 8.21053 4.10526 8.06937 4.10526 7.89474V7.26316C4.10526 7.08884 4.24642 6.94737 4.42105 6.94737H5.05263C5.22726 6.94737 5.36842 7.08884 5.36842 7.26316V7.89474C5.36842 8.06937 5.22726 8.21053 5.05263 8.21053ZM5.05263 6H4.42105C4.24642 6 4.10526 5.85884 4.10526 5.68421V5.05263C4.10526 4.878 4.24642 4.73684 4.42105 4.73684H5.05263C5.22726 4.73684 5.36842 4.878 5.36842 5.05263V5.68421C5.36842 5.85884 5.22726 6 5.05263 6ZM2.52632 10.4211H1.89474C1.72011 10.4211 1.57895 10.2799 1.57895 10.1053V9.47368C1.57895 9.29905 1.72011 9.15789 1.89474 9.15789H2.52632C2.70095 9.15789 2.84211 9.29905 2.84211 9.47368V10.1053C2.84211 10.2799 2.70095 10.4211 2.52632 10.4211ZM2.52632 8.21053H1.89474C1.72011 8.21053 1.57895 8.06937 1.57895 7.89474V7.26316C1.57895 7.08884 1.72011 6.94737 1.89474 6.94737H2.52632C2.70095 6.94737 2.84211 7.08884 2.84211 7.26316V7.89474C2.84211 8.06937 2.70095 8.21053 2.52632 8.21053ZM6.94737 9.15789H7.57895C7.75358 9.15789 7.89474 9.29905 7.89474 9.47368V10.1053C7.89474 10.2799 7.75358 10.4211 7.57895 10.4211H6.94737C6.77274 10.4211 6.63158 10.2799 6.63158 10.1053V9.47368C6.63158 9.29905 6.77274 9.15789 6.94737 9.15789Z" fill="black"/>
</svg>
