<svg width="35" height="36" viewBox="0 0 35 36" fill="none" xmlns="http://www.w3.org/2000/svg">
<path d="M12.9965 10.8624C15.4033 8.45559 19.3195 8.45615 21.7253 10.8624C21.9439 11.081 22.298 11.081 22.5167 10.8624C22.7353 10.6438 22.7353 10.2897 22.5167 10.0711C19.6737 7.22811 15.0481 7.22811 12.2051 10.0711C11.9866 10.2896 11.9866 10.6438 12.2051 10.8624C12.4237 11.0811 12.7779 11.081 12.9965 10.8624Z" fill="black"/>
<path d="M14.0184 11.8846C13.7998 12.1032 13.7998 12.4574 14.0184 12.676C14.237 12.8947 14.5912 12.8946 14.8098 12.676C16.2165 11.2693 18.5053 11.2693 19.912 12.676C20.1306 12.8946 20.4847 12.8946 20.7034 12.676C20.922 12.4574 20.922 12.1033 20.7034 11.8846C18.8605 10.0413 15.8613 10.0413 14.0184 11.8846Z" fill="black"/>
<path d="M15.8317 13.6977C15.6131 13.916 15.6131 14.2704 15.8317 14.4891C16.0503 14.7077 16.4044 14.7076 16.6231 14.4891C17.0177 14.095 17.7041 14.095 18.0987 14.4891C18.3172 14.7076 18.6714 14.7076 18.89 14.4891C19.1086 14.2707 19.1086 13.9163 18.89 13.6977C18.0741 12.8809 16.6499 12.8804 15.8317 13.6977Z" fill="black"/>
<path d="M31.8712 32.0964C31.8712 31.7874 31.6209 31.5368 31.3116 31.5368H30.3995V21.4536C32.9719 21.2376 35 19.0809 35 16.4562C35 14.1423 33.4272 12.1631 31.2449 11.6035C32.8828 6.00668 28.7601 0 22.5385 0C18.9917 0 15.7558 2.1005 14.2895 5.28963C9.8579 2.99478 4.47073 6.60016 4.83986 11.452C2.00721 11.5827 0 13.8334 0 16.4562C0 19.2237 2.25109 21.475 5.0186 21.475H5.58534V31.5368H4.66777C4.35847 31.5368 4.10815 31.7874 4.10815 32.0964C4.10815 34.1486 5.77773 35.8179 7.82988 35.8179H28.1496C29.1432 35.8179 30.0766 35.4318 30.7784 34.7306C31.4832 34.0259 31.8712 33.0903 31.8712 32.0964ZM5.01855 20.3558C2.86858 20.3558 1.11919 18.6064 1.11919 16.4562C1.11919 14.2433 2.94044 12.3914 5.43771 12.5773C5.80891 12.6014 6.09398 12.2724 6.02794 11.9171C5.20658 7.48437 10.3814 4.02885 14.2534 6.56322C14.5539 6.75954 14.9585 6.62736 15.0841 6.2908C16.2395 3.19758 19.2349 1.11919 22.5385 1.11919C28.2034 1.11919 31.8758 6.80274 29.9874 11.839C29.8597 12.1814 30.0877 12.5499 30.447 12.5912C32.4046 12.8186 33.8807 14.48 33.8807 16.4562C33.8807 18.4634 32.354 20.1201 30.3994 20.3318V18.822C30.3994 16.9923 28.9135 15.5036 27.0865 15.5036H8.89871C7.07175 15.5036 5.58522 16.9923 5.58522 18.822V20.3557H5.01855V20.3558ZM29.2802 20.9182V31.5369H21.1657C20.8564 31.5369 20.6061 31.7875 20.6061 32.0965V32.6616H15.3732V32.0965C15.3732 31.7875 15.1229 31.5369 14.8136 31.5369H6.70453V18.822C6.70453 17.6093 7.6888 16.6229 8.89876 16.6229H27.0866C28.296 16.6229 29.2802 17.6093 29.2802 18.822V20.9127C29.2802 20.9137 29.2797 20.9145 29.2797 20.9154C29.2797 20.9164 29.2802 20.9172 29.2802 20.9182ZM29.9869 33.9393C29.4966 34.429 28.8441 34.6986 28.1495 34.6986H7.82977C6.58701 34.6986 5.54482 33.8229 5.28795 32.6561H6.1449H14.254V33.2212C14.254 33.5302 14.5043 33.7808 14.8136 33.7808H21.1657C21.475 33.7808 21.7253 33.5302 21.7253 33.2212V32.6561H29.8399H30.6919C30.5864 33.1378 30.3448 33.5811 29.9869 33.9393Z" fill="black"/>
<path d="M17.9915 18.0126C14.6464 18.0126 11.9253 20.734 11.9253 24.0792C11.9253 27.4241 14.6464 30.1454 17.9915 30.1454C21.3367 30.1454 24.0578 27.4241 24.0578 24.0792C24.0578 20.734 21.3368 18.0126 17.9915 18.0126ZM17.9915 19.1319C18.4671 19.1319 19.316 20.7834 19.4199 23.5196H16.5632C16.6671 20.7835 17.516 19.1319 17.9915 19.1319ZM13.0785 24.6388H15.4435C15.499 26.1776 15.7847 27.673 16.2874 28.7173C14.5663 28.0827 13.2917 26.5216 13.0785 24.6388ZM15.4435 23.5196H13.0785C13.2917 21.6367 14.5663 20.0754 16.2875 19.4407C15.7847 20.4851 15.499 21.9807 15.4435 23.5196ZM17.9915 29.0262C17.5323 29.0262 16.6653 27.4827 16.5629 24.6388H19.4202C19.3177 27.4827 18.4508 29.0262 17.9915 29.0262ZM19.6957 28.7173C20.1984 27.673 20.4841 26.1776 20.5396 24.6388H22.9046C22.6914 26.5216 21.4168 28.0827 19.6957 28.7173ZM20.5396 23.5196C20.4841 21.9807 20.1984 20.4851 19.6956 19.4407C21.4168 20.0754 22.6913 21.6367 22.9046 23.5196H20.5396Z" fill="black"/>
</svg>
