<svg width="29" height="29" viewBox="0 0 29 29" fill="none" xmlns="http://www.w3.org/2000/svg">
<path d="M28.4279 0.00358134H0.572068C0.495212 -0.0055602 0.417283 0.00285411 0.34415 0.0281909C0.271016 0.0535278 0.204584 0.0951267 0.149855 0.149855C0.0951267 0.204584 0.0535278 0.271016 0.0281909 0.34415C0.00285411 0.417283 -0.0055602 0.495212 0.00358134 0.572068V28.4279C-0.0055602 28.5048 0.00285411 28.5827 0.0281909 28.6558C0.0535278 28.729 0.0951267 28.7954 0.149855 28.8501C0.204584 28.9049 0.271016 28.9465 0.34415 28.9718C0.417283 28.9971 0.495212 29.0056 0.572068 28.9964H28.4279C28.5048 29.0056 28.5827 28.9971 28.6558 28.9718C28.729 28.9465 28.7954 28.9049 28.8501 28.8501C28.9049 28.7954 28.9465 28.729 28.9718 28.6558C28.9971 28.5827 29.0056 28.5048 28.9964 28.4279V0.572068C29.0056 0.495212 28.9971 0.417283 28.9718 0.34415C28.9465 0.271016 28.9049 0.204584 28.8501 0.149855C28.7954 0.0951267 28.729 0.0535278 28.6558 0.0281909C28.5827 0.00285411 28.5048 -0.0055602 28.4279 0.00358134V0.00358134ZM27.8594 27.8594H1.14056V1.14056H27.8594V27.8594Z" fill="black"/>
<path d="M5.68845 19.3322H14.7842C14.8611 19.3413 14.939 19.3329 15.0122 19.3075C15.0853 19.2822 15.1517 19.2406 15.2065 19.1859C15.2612 19.1312 15.3028 19.0647 15.3281 18.9916C15.3535 18.9185 15.3619 18.8405 15.3527 18.7637V5.11998C15.3619 5.04312 15.3535 4.9652 15.3281 4.89206C15.3028 4.81893 15.2612 4.7525 15.2065 4.69777C15.1517 4.64304 15.0853 4.60144 15.0122 4.5761C14.939 4.55077 14.8611 4.54235 14.7842 4.55149H5.68845C5.61159 4.54235 5.53367 4.55077 5.46053 4.5761C5.3874 4.60144 5.32097 4.64304 5.26624 4.69777C5.21151 4.7525 5.16991 4.81893 5.14457 4.89206C5.11924 4.9652 5.11082 5.04312 5.11996 5.11998V18.7637C5.11082 18.8405 5.11924 18.9185 5.14457 18.9916C5.16991 19.0647 5.21151 19.1312 5.26624 19.1859C5.32097 19.2406 5.3874 19.2822 5.46053 19.3075C5.53367 19.3329 5.61159 19.3413 5.68845 19.3322ZM6.25694 18.1952V12.1692L6.59803 12.3966C7.00451 12.7602 7.53074 12.9612 8.0761 12.9612C8.62145 12.9612 9.14768 12.7602 9.55416 12.3966C9.64239 12.2863 9.75512 12.198 9.8834 12.1388C10.0117 12.0796 10.152 12.0511 10.2932 12.0555C10.4427 12.0507 10.5915 12.0788 10.729 12.1377C10.8665 12.1967 10.9894 12.285 11.0891 12.3966C11.4889 12.7714 12.0192 12.9754 12.5671 12.9651C13.1102 12.9493 13.6315 12.7487 14.0452 12.3966L14.2158 12.2261V18.1952H6.25694ZM14.2158 5.68847V10.9754C13.8825 11.0858 13.5736 11.2596 13.3062 11.487C13.2179 11.5974 13.1052 11.6857 12.9769 11.7449C12.8487 11.8041 12.7084 11.8326 12.5671 11.8281C12.4176 11.8329 12.2689 11.8048 12.1313 11.7459C11.9938 11.687 11.8709 11.5986 11.7713 11.487C11.3714 11.1122 10.8411 10.9083 10.2932 10.9185C9.75018 10.9344 9.2288 11.1349 8.81513 11.487C8.72441 11.5947 8.61127 11.6812 8.48362 11.7406C8.35596 11.8 8.21688 11.8307 8.0761 11.8307C7.93531 11.8307 7.79623 11.8 7.66858 11.7406C7.54092 11.6812 7.42778 11.5947 7.33706 11.487C7.02622 11.2277 6.65453 11.0516 6.25694 10.9754V5.68847H14.2158ZM21.6061 10.2364C22.1683 10.2364 22.7178 10.0697 23.1853 9.75733C23.6527 9.445 24.017 9.00107 24.2322 8.48168C24.4473 7.96229 24.5036 7.39078 24.3939 6.8394C24.2842 6.28802 24.0135 5.78155 23.616 5.38402C23.2185 4.9865 22.712 4.71579 22.1606 4.60611C21.6092 4.49643 21.0377 4.55272 20.5183 4.76786C19.9989 4.983 19.555 5.34732 19.2427 5.81476C18.9304 6.28219 18.7637 6.83175 18.7637 7.39393C18.7637 7.7672 18.8372 8.13682 18.98 8.48168C19.1229 8.82654 19.3322 9.13989 19.5962 9.40383C20.1292 9.93689 20.8522 10.2364 21.6061 10.2364ZM21.6061 5.68847C21.9434 5.68847 22.2731 5.78849 22.5536 5.97589C22.8341 6.16329 23.0526 6.42964 23.1817 6.74128C23.3108 7.05291 23.3446 7.39582 23.2788 7.72665C23.213 8.05748 23.0505 8.36136 22.812 8.59987C22.5735 8.83838 22.2696 9.00081 21.9388 9.06662C21.608 9.13243 21.2651 9.09865 20.9534 8.96957C20.6418 8.84049 20.3754 8.62189 20.188 8.34143C20.0006 8.06097 19.9006 7.73124 19.9006 7.39393C19.8927 7.16783 19.9314 6.94251 20.0143 6.732C20.0972 6.52149 20.2225 6.3303 20.3825 6.17032C20.5425 6.01034 20.7336 5.885 20.9442 5.80211C21.1547 5.71921 21.38 5.68053 21.6061 5.68847V5.68847ZM21.6061 17.6267C22.1683 17.6267 22.7178 17.46 23.1853 17.1477C23.6527 16.8353 24.017 16.3914 24.2322 15.872C24.4473 15.3526 24.5036 14.7811 24.3939 14.2297C24.2842 13.6783 24.0135 13.1719 23.616 12.7744C23.2185 12.3768 22.712 12.1061 22.1606 11.9964C21.6092 11.8868 21.0377 11.9431 20.5183 12.1582C19.9989 12.3733 19.555 12.7377 19.2427 13.2051C18.9304 13.6725 18.7637 14.2221 18.7637 14.7843C18.7637 15.5381 19.0631 16.2611 19.5962 16.7942C20.1292 17.3272 20.8522 17.6267 21.6061 17.6267ZM21.6061 13.0788C21.9434 13.0788 22.2731 13.1788 22.5536 13.3662C22.8341 13.5536 23.0526 13.82 23.1817 14.1316C23.3108 14.4432 23.3446 14.7862 23.2788 15.117C23.213 15.4478 23.0505 15.7517 22.812 15.9902C22.5735 16.2287 22.2696 16.3911 21.9388 16.457C21.608 16.5228 21.2651 16.489 20.9534 16.3599C20.6418 16.2308 20.3754 16.0122 20.188 15.7318C20.0006 15.4513 19.9006 15.1216 19.9006 14.7843C19.8927 14.5582 19.9314 14.3328 20.0143 14.1223C20.0972 13.9118 20.2225 13.7206 20.3825 13.5607C20.5425 13.4007 20.7336 13.2753 20.9442 13.1924C21.1547 13.1095 21.38 13.0709 21.6061 13.0788V13.0788ZM6.25694 25.5855C6.59425 25.5855 6.92398 25.4855 7.20444 25.2981C7.4849 25.1107 7.7035 24.8443 7.83258 24.5327C7.96166 24.2211 7.99543 23.8782 7.92963 23.5473C7.86382 23.2165 7.70139 22.9126 7.46288 22.6741C7.22437 22.4356 6.92048 22.2732 6.58966 22.2074C6.25883 22.1416 5.91592 22.1753 5.60429 22.3044C5.29265 22.4335 5.0263 22.6521 4.8389 22.9325C4.6515 23.213 4.55148 23.5427 4.55148 23.8801C4.54354 24.1062 4.58222 24.3315 4.66511 24.542C4.74801 24.7525 4.87335 24.9437 5.03333 25.1037C5.19331 25.2636 5.3845 25.389 5.59501 25.4719C5.80552 25.5548 6.03083 25.5935 6.25694 25.5855V25.5855ZM6.25694 23.3116C6.36937 23.3116 6.47929 23.3449 6.57277 23.4074C6.66626 23.4698 6.73912 23.5586 6.78215 23.6625C6.82518 23.7664 6.83644 23.8807 6.8145 23.991C6.79257 24.1012 6.73842 24.2025 6.65892 24.282C6.57941 24.3615 6.47812 24.4157 6.36784 24.4376C6.25757 24.4595 6.14326 24.4483 6.03939 24.4053C5.93551 24.3622 5.84672 24.2894 5.78426 24.1959C5.72179 24.1024 5.68845 23.9925 5.68845 23.8801C5.67931 23.8032 5.68772 23.7253 5.71306 23.6521C5.7384 23.579 5.78 23.5126 5.83473 23.4578C5.88945 23.4031 5.95589 23.3615 6.02902 23.3362C6.10215 23.3108 6.18008 23.3024 6.25694 23.3116ZM11.9418 22.1746C11.6045 22.1746 11.2748 22.2746 10.9943 22.462C10.7138 22.6494 10.4952 22.9158 10.3662 23.2274C10.2371 23.539 10.2033 23.8819 10.2691 24.2128C10.3349 24.5436 10.4974 24.8475 10.7359 25.086C10.9744 25.3245 11.2783 25.4869 11.6091 25.5527C11.9399 25.6185 12.2828 25.5848 12.5945 25.4557C12.9061 25.3266 13.1724 25.108 13.3598 24.8276C13.5472 24.5471 13.6473 24.2174 13.6473 23.8801C13.6552 23.6539 13.6165 23.4286 13.5336 23.2181C13.4507 23.0076 13.3254 22.8164 13.1654 22.6564C13.0054 22.4965 12.8142 22.3711 12.6037 22.2882C12.3932 22.2053 12.1679 22.1666 11.9418 22.1746V22.1746ZM11.9418 24.4485C11.8294 24.4485 11.7195 24.4152 11.626 24.3527C11.5325 24.2903 11.4596 24.2015 11.4166 24.0976C11.3736 23.9937 11.3623 23.8794 11.3842 23.7691C11.4062 23.6589 11.4603 23.5576 11.5398 23.4781C11.6193 23.3986 11.7206 23.3444 11.8309 23.3225C11.9412 23.3006 12.0555 23.3118 12.1594 23.3548C12.2632 23.3979 12.352 23.4707 12.4145 23.5642C12.477 23.6577 12.5103 23.7676 12.5103 23.8801C12.5194 23.9569 12.511 24.0348 12.4857 24.108C12.4603 24.1811 12.4187 24.2475 12.364 24.3023C12.3093 24.357 12.2429 24.3986 12.1697 24.4239C12.0966 24.4493 12.0187 24.4577 11.9418 24.4485V24.4485ZM17.6267 25.5855C17.964 25.5855 18.2937 25.4855 18.5742 25.2981C18.8546 25.1107 19.0732 24.8443 19.2023 24.5327C19.3314 24.2211 19.3652 23.8782 19.2994 23.5473C19.2336 23.2165 19.0711 22.9126 18.8326 22.6741C18.5941 22.4356 18.2902 22.2732 17.9594 22.2074C17.6286 22.1416 17.2857 22.1753 16.974 22.3044C16.6624 22.4335 16.396 22.6521 16.2086 22.9325C16.0212 23.213 15.9212 23.5427 15.9212 23.8801C15.9133 24.1062 15.952 24.3315 16.0349 24.542C16.1178 24.7525 16.2431 24.9437 16.4031 25.1037C16.563 25.2636 16.7542 25.389 16.9647 25.4719C17.1753 25.5548 17.4006 25.5935 17.6267 25.5855V25.5855ZM17.6267 23.3116C17.7391 23.3116 17.849 23.3449 17.9425 23.4074C18.036 23.4698 18.1089 23.5586 18.1519 23.6625C18.1949 23.7664 18.2062 23.8807 18.1842 23.991C18.1623 24.1012 18.1082 24.2025 18.0287 24.282C17.9492 24.3615 17.8479 24.4157 17.7376 24.4376C17.6273 24.4595 17.513 24.4483 17.4091 24.4053C17.3052 24.3622 17.2165 24.2894 17.154 24.1959C17.0915 24.1024 17.0582 23.9925 17.0582 23.8801C17.049 23.8032 17.0575 23.7253 17.0828 23.6521C17.1081 23.579 17.1497 23.5126 17.2045 23.4578C17.2592 23.4031 17.3256 23.3615 17.3988 23.3362C17.4719 23.3108 17.5498 23.3024 17.6267 23.3116V23.3116ZM21.6061 23.8801C21.6061 24.2174 21.7061 24.5471 21.8935 24.8276C22.0809 25.108 22.3473 25.3266 22.6589 25.4557C22.9705 25.5848 23.3134 25.6185 23.6443 25.5527C23.9751 25.4869 24.279 25.3245 24.5175 25.086C24.756 24.8475 24.9184 24.5436 24.9842 24.2128C25.05 23.8819 25.0163 23.539 24.8872 23.2274C24.7581 22.9158 24.5395 22.6494 24.259 22.462C23.9786 22.2746 23.6489 22.1746 23.3115 22.1746C23.0854 22.1666 22.8601 22.2053 22.6496 22.2882C22.4391 22.3711 22.2479 22.4965 22.0879 22.6564C21.928 22.8164 21.8026 23.0076 21.7197 23.2181C21.6368 23.4286 21.5981 23.6539 21.6061 23.8801V23.8801ZM23.88 23.8801C23.88 23.9925 23.8467 24.1024 23.7842 24.1959C23.7218 24.2894 23.633 24.3622 23.5291 24.4053C23.4252 24.4483 23.3109 24.4595 23.2006 24.4376C23.0904 24.4157 22.9891 24.3615 22.9096 24.282C22.8301 24.2025 22.7759 24.1012 22.754 23.991C22.732 23.8807 22.7433 23.7664 22.7863 23.6625C22.8294 23.5586 22.9022 23.4698 22.9957 23.4074C23.0892 23.3449 23.1991 23.3116 23.3115 23.3116C23.3884 23.3024 23.4663 23.3108 23.5395 23.3362C23.6126 23.3615 23.679 23.4031 23.7338 23.4578C23.7885 23.5126 23.8301 23.579 23.8554 23.6521C23.8808 23.7253 23.8892 23.8032 23.88 23.8801V23.8801Z" fill="black"/>
</svg>
