<svg width="60" height="60" viewBox="0 0 60 60" fill="none" xmlns="http://www.w3.org/2000/svg">
<path d="M29.69 59.38C23.8179 59.38 18.0776 57.6387 13.1951 54.3763C8.31264 51.114 4.50719 46.477 2.26003 41.0519C0.0128641 35.6267 -0.575097 29.6571 0.570498 23.8978C1.71609 18.1385 4.54379 12.8482 8.69601 8.69601C12.8482 4.54379 18.1385 1.71609 23.8978 0.570498C29.6571 -0.575097 35.6267 0.0128641 41.0519 2.26003C46.477 4.50719 51.114 8.31264 54.3763 13.1951C57.6387 18.0776 59.38 23.8179 59.38 29.69C59.3689 37.5609 56.2372 45.1062 50.6717 50.6717C45.1062 56.2372 37.5609 59.3689 29.69 59.38ZM29.69 3.15964C24.4428 3.15964 19.3134 4.71562 14.9505 7.63082C10.5876 10.546 7.18717 14.6895 5.17915 19.5373C3.17113 24.3851 2.64574 29.7194 3.66942 34.8658C4.6931 40.0122 7.21987 44.7395 10.9302 48.4498C14.6405 52.1601 19.3678 54.6869 24.5142 55.7106C29.6606 56.7343 34.9949 56.2089 39.8427 54.2009C44.6905 52.1928 48.834 48.7924 51.7492 44.4295C54.6644 40.0666 56.2204 34.9372 56.2204 29.69C56.212 22.6563 53.4142 15.913 48.4406 10.9394C43.467 5.96585 36.7237 3.16801 29.69 3.15964Z" fill="#222222"/>
<path d="M29.69 53.0608C25.0677 53.0608 20.5492 51.6901 16.7059 49.1221C12.8626 46.5541 9.86713 42.9041 8.09825 38.6337C6.32938 34.3632 5.86656 29.6642 6.76832 25.1307C7.67009 20.5972 9.89594 16.4329 13.1644 13.1645C16.4328 9.89602 20.5971 7.67017 25.1306 6.76841C29.6641 5.86664 34.3631 6.32946 38.6336 8.09834C42.904 9.86721 46.554 12.8627 49.122 16.706C51.6901 20.5493 53.0607 25.0678 53.0607 29.6901C53.0524 35.8858 50.5874 41.8254 46.2064 46.2065C41.8253 50.5875 35.8857 53.0525 29.69 53.0608ZM29.69 9.47898C25.6926 9.47898 21.785 10.6643 18.4613 12.8852C15.1376 15.106 12.5471 18.2625 11.0174 21.9556C9.48764 25.6487 9.08739 29.7125 9.86724 33.6331C10.6471 37.5536 12.572 41.1549 15.3986 43.9815C18.2252 46.8081 21.8264 48.733 25.747 49.5128C29.6676 50.2927 33.7314 49.8924 37.4245 48.3627C41.1175 46.833 44.2741 44.2425 46.4949 40.9188C48.7157 37.5951 49.9011 33.6875 49.9011 29.6901C49.8955 24.3315 47.7644 19.1939 43.9752 15.4048C40.1861 11.6157 35.0486 9.48455 29.69 9.47898Z" fill="#222222"/>
<path d="M29.69 9.47889C29.271 9.47889 28.8692 9.31245 28.5729 9.01617C28.2766 8.7199 28.1102 8.31807 28.1102 7.89908V1.57982C28.1102 1.16082 28.2766 0.75899 28.5729 0.462717C28.8692 0.166445 29.271 0 29.69 0C30.109 0 30.5108 0.166445 30.8071 0.462717C31.1034 0.75899 31.2698 1.16082 31.2698 1.57982V7.89908C31.2698 8.31807 31.1034 8.7199 30.8071 9.01617C30.5108 9.31245 30.109 9.47889 29.69 9.47889ZM49.8695 23.0337C49.5025 23.0352 49.1463 22.9089 48.8623 22.6764C48.5783 22.4439 48.384 22.1197 48.313 21.7596C48.242 21.3995 48.2986 21.0259 48.4731 20.7029C48.6475 20.38 48.929 20.1279 49.2692 19.9899L55.1145 17.6097C55.3067 17.5308 55.5126 17.4906 55.7204 17.4914C55.9282 17.4921 56.1338 17.5338 56.3255 17.614C56.5172 17.6942 56.6912 17.8113 56.8376 17.9588C56.984 18.1062 57.1 18.2811 57.1788 18.4733C57.2576 18.6656 57.2978 18.8715 57.2971 19.0792C57.2964 19.287 57.2547 19.4926 57.1745 19.6843C57.0943 19.876 56.9771 20.05 56.8297 20.1964C56.6822 20.3428 56.5074 20.4588 56.3152 20.5376L50.4698 22.9179C50.2797 22.9968 50.0754 23.0362 49.8695 23.0337ZM54.967 43.624C54.7252 43.6244 54.4867 43.5666 54.2719 43.4554L48.5951 40.6855C48.218 40.5011 47.9296 40.1745 47.7933 39.7775C47.6571 39.3805 47.6841 38.9456 47.8684 38.5686C48.0528 38.1915 48.3794 37.903 48.7764 37.7668C49.1734 37.6305 49.6083 37.6575 49.9854 37.8418L55.6622 40.6223C55.9845 40.7784 56.2442 41.0394 56.3988 41.3625C56.5533 41.6856 56.5935 42.0517 56.5127 42.4006C56.4319 42.7495 56.2349 43.0606 55.9541 43.2829C55.6732 43.5052 55.3252 43.6254 54.967 43.624ZM12.3226 53.3451C11.968 53.3428 11.624 53.2244 11.3431 53.0081C11.1762 52.8785 11.0368 52.717 10.9331 52.533C10.8293 52.349 10.7632 52.1462 10.7387 51.9364C10.7142 51.7265 10.7317 51.5139 10.7903 51.311C10.8489 51.108 10.9473 50.9187 11.0798 50.7542L14.9767 45.8041C15.1053 45.6409 15.2648 45.5046 15.4461 45.4031C15.6274 45.3015 15.8269 45.2367 16.0333 45.2122C16.2396 45.1878 16.4488 45.2042 16.6488 45.2606C16.8488 45.317 17.0357 45.4122 17.1989 45.5408C17.3621 45.6694 17.4984 45.8289 17.6 46.0102C17.7015 46.1915 17.7664 46.3911 17.7908 46.5974C17.8153 46.8038 17.7989 47.0129 17.7425 47.2129C17.6861 47.4129 17.5909 47.5999 17.4622 47.7631L13.5654 52.7132C13.4187 52.9048 13.231 53.0611 13.0159 53.1705C12.8007 53.2799 12.5638 53.3395 12.3226 53.3451ZM20.5166 35.6196C20.0976 35.6196 19.6957 35.4531 19.3995 35.1568C19.1032 34.8606 18.9367 34.4587 18.9367 34.0398V28.4999C18.9367 28.2924 18.9776 28.087 19.057 27.8953C19.1364 27.7036 19.2528 27.5295 19.3995 27.3828C19.5462 27.2361 19.7203 27.1197 19.912 27.0403C20.1037 26.9609 20.3091 26.9201 20.5166 26.9201C20.724 26.9201 20.9294 26.9609 21.1211 27.0403C21.3128 27.1197 21.4869 27.2361 21.6336 27.3828C21.7803 27.5295 21.8967 27.7036 21.9761 27.8953C22.0555 28.087 22.0964 28.2924 22.0964 28.4999V34.0398C22.0964 34.4587 21.9299 34.8606 21.6336 35.1568C21.3374 35.4531 20.9355 35.6196 20.5166 35.6196ZM26.6357 35.6196C26.2167 35.6196 25.8149 35.4531 25.5186 35.1568C25.2223 34.8606 25.0559 34.4587 25.0559 34.0398V23.2338C25.0559 22.8148 25.2223 22.413 25.5186 22.1167C25.8149 21.8204 26.2167 21.654 26.6357 21.654C27.0547 21.654 27.4565 21.8204 27.7528 22.1167C28.0491 22.413 28.2155 22.8148 28.2155 23.2338V34.0398C28.2155 34.4587 28.0491 34.8606 27.7528 35.1568C27.4565 35.4531 27.0547 35.6196 26.6357 35.6196ZM32.7443 35.6196C32.3253 35.6196 31.9235 35.4531 31.6272 35.1568C31.3309 34.8606 31.1645 34.4587 31.1645 34.0398V25.3402C31.1645 24.9212 31.3309 24.5194 31.6272 24.2231C31.9235 23.9269 32.3253 23.7604 32.7443 23.7604C33.1633 23.7604 33.5651 23.9269 33.8614 24.2231C34.1577 24.5194 34.3241 24.9212 34.3241 25.3402V34.0398C34.3241 34.4587 34.1577 34.8606 33.8614 35.1568C33.5651 35.4531 33.1633 35.6196 32.7443 35.6196ZM38.8635 35.6196C38.4445 35.6196 38.0426 35.4531 37.7464 35.1568C37.4501 34.8606 37.2837 34.4587 37.2837 34.0398V28.4999C37.2837 28.0809 37.4501 27.679 37.7464 27.3828C38.0426 27.0865 38.4445 26.9201 38.8635 26.9201C39.2825 26.9201 39.6843 27.0865 39.9806 27.3828C40.2768 27.679 40.4433 28.0809 40.4433 28.4999V34.0398C40.4433 34.4587 40.2768 34.8606 39.9806 35.1568C39.6843 35.4531 39.2825 35.6196 38.8635 35.6196Z" fill="#222222"/>
</svg>
