<svg width="29" height="35" viewBox="0 0 29 35" fill="none" xmlns="http://www.w3.org/2000/svg">
<path d="M29 29V6C29 2.63574 22.6309 0 14.5 0C6.36914 0 0 2.63574 0 6V29C0 32.3643 6.36914 35 14.5 35C22.6309 35 29 32.3643 29 29ZM14.5 1C22.5752 1 28 3.58545 28 6C28 8.41455 22.5752 11 14.5 11C6.4248 11 1 8.41455 1 6C1 3.58545 6.4248 1 14.5 1ZM14.5 12C20.7194 12 25.9041 10.457 28 8.22626V11.75C28 14.1646 22.5752 16.75 14.5 16.75C6.4248 16.75 1 14.1646 1 11.75V8.22626C3.09586 10.457 8.28061 12 14.5 12ZM14.5 17.75C20.7194 17.75 25.9041 16.207 28 13.9763V17.5C28 19.9146 22.5752 22.5 14.5 22.5C6.4248 22.5 1 19.9146 1 17.5V13.9763C3.09586 16.207 8.28061 17.75 14.5 17.75ZM14.5 23.5C20.7194 23.5 25.9041 21.957 28 19.7263V23.25C28 25.6646 22.5752 28.25 14.5 28.25C6.4248 28.25 1 25.6646 1 23.25V19.7263C3.09586 21.957 8.28061 23.5 14.5 23.5ZM1 29V25.4763C3.09586 27.707 8.28061 29.25 14.5 29.25C20.7194 29.25 25.9041 27.707 28 25.4763V29C28 31.4146 22.5752 34 14.5 34C6.4248 34 1 31.4146 1 29Z" fill="black"/>
</svg>
