<svg width="33" height="35" viewBox="0 0 33 35" fill="none" xmlns="http://www.w3.org/2000/svg">
<path d="M0 9.625H2.0625V11H0V20.625H2.0625V22H0V31.625H2.0625V34.375H30.9375V31.625H33V22H30.9375V20.625H33V11H30.9375V9.625H33V0H0V9.625ZM29.5625 33H3.4375V31.625H29.5625V33ZM31.625 23.375V30.25H1.375V23.375H31.625ZM29.5625 22H3.4375V20.625H29.5625V22ZM31.625 12.375V19.25H1.375V12.375H31.625ZM29.5625 11H3.4375V9.625H29.5625V11ZM1.375 1.375H31.625V8.25H1.375V1.375Z" fill="black"/>
<path d="M3.4375 3.4375H4.8125V6.1875H3.4375V3.4375ZM6.875 3.4375H8.25V6.1875H6.875V3.4375ZM10.3125 3.4375H11.6875V6.1875H10.3125V3.4375ZM13.75 3.4375H15.125V6.1875H13.75V3.4375ZM28.1875 4.125H29.5625V5.5H28.1875V4.125ZM17.1875 4.125H26.125V5.5H17.1875V4.125ZM3.4375 14.4375H4.8125V17.1875H3.4375V14.4375ZM6.875 14.4375H8.25V17.1875H6.875V14.4375ZM10.3125 14.4375H11.6875V17.1875H10.3125V14.4375ZM13.75 14.4375H15.125V17.1875H13.75V14.4375ZM28.1875 15.125H29.5625V16.5H28.1875V15.125ZM17.1875 15.125H26.125V16.5H17.1875V15.125ZM3.4375 25.4375H4.8125V28.1875H3.4375V25.4375ZM6.875 25.4375H8.25V28.1875H6.875V25.4375ZM10.3125 25.4375H11.6875V28.1875H10.3125V25.4375ZM13.75 25.4375H15.125V28.1875H13.75V25.4375ZM28.1875 26.125H29.5625V27.5H28.1875V26.125ZM17.1875 26.125H26.125V27.5H17.1875V26.125Z" fill="black"/>
</svg>
