<svg width="12" height="16" viewBox="0 0 12 16" fill="none" xmlns="http://www.w3.org/2000/svg">
<path d="M11.2571 4.17143L7.25714 0.171429C7.2 0.114286 7.14286 0.0571428 7.08571 0.0571428C7.02857 -5.53472e-08 6.91429 0 6.85714 0H1.71429C0.742857 0 0 0.742857 0 1.71429V14.2857C0 15.2571 0.742857 16 1.71429 16H9.71429C10.6857 16 11.4286 15.2571 11.4286 14.2857V4.57143C11.4286 4.51429 11.4286 4.4 11.3714 4.34286C11.3714 4.28571 11.3143 4.22857 11.2571 4.17143ZM7.42857 1.94286L9.48571 4H8C7.65714 4 7.42857 3.77143 7.42857 3.42857V1.94286ZM10.2857 14.2857C10.2857 14.6286 10.0571 14.8571 9.71429 14.8571H1.71429C1.37143 14.8571 1.14286 14.6286 1.14286 14.2857V1.71429C1.14286 1.37143 1.37143 1.14286 1.71429 1.14286H6.28571V3.42857C6.28571 4.4 7.02857 5.14286 8 5.14286H10.2857V14.2857Z" fill="black"/>
</svg>
