<svg width="36" height="30" viewBox="0 0 36 30" fill="none" xmlns="http://www.w3.org/2000/svg">
<path d="M0 0V29.6801H36V0H0ZM34.5234 28.2034H1.47662V7.08778H34.5234V28.2034ZM1.47662 5.61116V1.47662H34.5234V5.61116H1.47662Z" fill="#231F20"/>
<path d="M23.9655 2.76123H21.6915V4.23785H23.9655V2.76123Z" fill="#231F20"/>
<path d="M28.3954 2.76123H26.1214V4.23785H28.3954V2.76123Z" fill="#231F20"/>
<path d="M32.8252 2.76123H30.5512V4.23785H32.8252V2.76123Z" fill="#231F20"/>
<path d="M8.09187 19.7868L9.06644 16.8631L10.0558 19.7868H11.1485L12.8466 14.6334H11.5029L10.6021 17.4537L9.65709 14.6334H8.50532L7.57505 17.4537L6.67431 14.6334H5.30106L6.99917 19.7868H8.09187Z" fill="#231F20"/>
<path d="M15.9918 19.7868L16.9664 16.8631L17.9557 19.7868H19.0484L20.7465 14.6334H19.4028L18.5021 17.4537L17.557 14.6334H16.4053L15.475 17.4537L14.5743 14.6334H13.201L14.8991 19.7868H15.9918Z" fill="#231F20"/>
<path d="M23.9065 19.7868L24.881 16.8631L25.8704 19.7868H26.9631L28.6612 14.6334H27.3175L26.4167 17.4537L25.4717 14.6334H24.3199L23.3897 17.4537L22.4889 14.6334H21.1157L22.8285 19.7868H23.9065Z" fill="#231F20"/>
<path d="M29.8129 19.7867C29.9188 19.7899 30.0243 19.7719 30.1232 19.7339C30.222 19.6959 30.3123 19.6385 30.3888 19.5652C30.4679 19.4885 30.5308 19.3967 30.574 19.2952C30.6171 19.1938 30.6395 19.0848 30.6398 18.9746C30.641 18.8663 30.6192 18.759 30.5759 18.6598C30.5326 18.5605 30.4689 18.4715 30.3888 18.3987C30.2288 18.2544 30.021 18.1746 29.8055 18.1746C29.5901 18.1746 29.3823 18.2544 29.2223 18.3987C29.1422 18.4715 29.0784 18.5605 29.0352 18.6598C28.9919 18.759 28.9701 18.8663 28.9713 18.9746C28.9699 19.085 28.9915 19.1946 29.0347 19.2963C29.0779 19.3979 29.1418 19.4895 29.2223 19.5652C29.3846 19.7102 29.5953 19.7892 29.8129 19.7867Z" fill="#231F20"/>
</svg>
