<svg width="31" height="28" viewBox="0 0 31 28" fill="none" xmlns="http://www.w3.org/2000/svg">
<path d="M28.7353 26.9706H2.26471C1.20588 26.9706 0.5 26.2647 0.5 25.2059V2.26471C0.5 1.20588 1.20588 0.5 2.26471 0.5H28.7353C29.7941 0.5 30.5 1.20588 30.5 2.26471V25.2059C30.5 26.2647 29.7941 26.9706 28.7353 26.9706Z" stroke="black" stroke-miterlimit="10" stroke-linecap="round" stroke-linejoin="round"/>
<path d="M9.32353 13.7353C8.79412 13.7353 8.44118 14.0882 8.44118 14.6176V15.5V17.7941L7.20589 16.5588C6.85295 16.2059 6.32353 16.2059 5.97059 16.5588L4.91177 17.7941V15.5V14.6176C4.91177 14.0882 4.55883 13.7353 4.02942 13.7353C3.50001 13.7353 3.14706 14.0882 3.14706 14.6176V15.5V18.1471V19.9118C3.14706 20.0882 3.14706 20.0882 3.14706 20.2647C3.32353 20.4412 3.50001 20.6176 3.67648 20.7941C3.85295 20.7941 3.85295 20.7941 4.02942 20.7941C4.20589 20.7941 4.20589 20.7941 4.38236 20.7941C4.55883 20.7941 4.55883 20.6176 4.7353 20.6176L6.67648 18.5L8.79412 20.6176C8.79412 20.6176 8.79412 20.6176 8.97059 20.6176C8.97059 20.6176 9.14706 20.6176 9.14706 20.7941H9.32353C9.32353 20.7941 9.32353 20.7941 9.50001 20.7941H9.67648C9.67648 20.7941 9.67648 20.7941 9.85295 20.7941C9.85295 20.7941 10.0294 20.7941 10.0294 20.6176C10.0294 20.6176 10.2059 20.6176 10.2059 20.4412V20.2647V20.0882V19.9118C10.2059 19.9118 10.2059 19.9118 10.2059 19.7353V17.9706V15.5V14.6176C10.2059 14.0882 9.85295 13.7353 9.32353 13.7353ZM18.1471 13.7353C17.6177 13.7353 17.2647 14.0882 17.2647 14.6176V15.5V17.7941L16.0294 16.5588C15.6765 16.2059 15.1471 16.2059 14.7941 16.5588L13.7353 17.7941V15.5V14.6176C13.7353 14.0882 13.3824 13.7353 12.8529 13.7353C12.3235 13.7353 11.9706 14.0882 11.9706 14.6176V15.5V18.1471V19.9118C11.9706 20.0882 11.9706 20.0882 11.9706 20.2647C12.1471 20.4412 12.3235 20.6176 12.5 20.7941C12.6765 20.7941 12.6765 20.7941 12.8529 20.7941C13.0294 20.7941 13.0294 20.7941 13.2059 20.7941C13.3824 20.7941 13.3824 20.6176 13.5588 20.6176L15.5 18.5L17.6177 20.6176C17.6177 20.6176 17.6177 20.6176 17.7941 20.6176C17.7941 20.6176 17.9706 20.6176 17.9706 20.7941H18.1471C18.1471 20.7941 18.1471 20.7941 18.3235 20.7941H18.5C18.5 20.7941 18.5 20.7941 18.6765 20.7941C18.6765 20.7941 18.8529 20.7941 18.8529 20.6176C18.8529 20.6176 19.0294 20.6176 19.0294 20.4412V20.2647V20.0882V19.9118C19.0294 19.9118 19.0294 19.9118 19.0294 19.7353V17.9706V15.5V14.6176C19.0294 14.0882 18.6765 13.7353 18.1471 13.7353ZM26.9706 13.7353C26.4412 13.7353 26.0882 14.0882 26.0882 14.6176V15.5V17.7941L24.8529 16.5588C24.5 16.2059 23.9706 16.2059 23.6177 16.5588L22.5588 17.7941V15.5V14.6176C22.5588 14.0882 22.2059 13.7353 21.6765 13.7353C21.1471 13.7353 20.7941 14.0882 20.7941 14.6176V15.5V18.1471V19.9118C20.7941 20.0882 20.7941 20.0882 20.7941 20.2647C20.9706 20.4412 21.1471 20.6176 21.3235 20.7941C21.5 20.7941 21.5 20.7941 21.6765 20.7941C21.8529 20.7941 21.8529 20.7941 22.0294 20.7941C22.2059 20.7941 22.2059 20.6176 22.3824 20.6176L24.3235 18.5L26.4412 20.6176C26.4412 20.6176 26.4412 20.6176 26.6177 20.6176C26.6177 20.6176 26.7941 20.6176 26.7941 20.7941H26.9706C26.9706 20.7941 26.9706 20.7941 27.1471 20.7941H27.3235C27.3235 20.7941 27.3235 20.7941 27.5 20.7941C27.5 20.7941 27.6765 20.7941 27.6765 20.6176C27.6765 20.6176 27.8529 20.6176 27.8529 20.4412V20.2647V20.0882V19.9118C27.8529 19.9118 27.8529 19.9118 27.8529 19.7353V17.9706V15.5V14.6176C27.8529 14.0882 27.5 13.7353 26.9706 13.7353Z" fill="black"/>
<path d="M25.2059 4.91177C25.6932 4.91177 26.0882 4.51673 26.0882 4.02942C26.0882 3.54211 25.6932 3.14706 25.2059 3.14706C24.7186 3.14706 24.3235 3.54211 24.3235 4.02942C24.3235 4.51673 24.7186 4.91177 25.2059 4.91177Z" fill="black"/>
<path d="M21.6765 4.91177C22.1638 4.91177 22.5588 4.51673 22.5588 4.02942C22.5588 3.54211 22.1638 3.14706 21.6765 3.14706C21.1892 3.14706 20.7941 3.54211 20.7941 4.02942C20.7941 4.51673 21.1892 4.91177 21.6765 4.91177Z" fill="black"/>
<path d="M18.1471 4.91177C18.6344 4.91177 19.0294 4.51673 19.0294 4.02942C19.0294 3.54211 18.6344 3.14706 18.1471 3.14706C17.6598 3.14706 17.2647 3.54211 17.2647 4.02942C17.2647 4.51673 17.6598 4.91177 18.1471 4.91177Z" fill="black"/>
<path d="M1.38235 7.55884H29.6176" stroke="black" stroke-miterlimit="10" stroke-linecap="round" stroke-linejoin="round"/>
</svg>
