<svg width="30" height="21" viewBox="0 0 30 21" fill="none" xmlns="http://www.w3.org/2000/svg">
<path d="M29.25 0H0.75C0.3375 0 0 0.3375 0 0.75V19.5C0 19.9125 0.3375 20.25 0.75 20.25H29.25C29.6625 20.25 30 19.9125 30 19.5V0.75C30 0.3375 29.6625 0 29.25 0ZM27.45 1.5L15 13.95L2.55 1.5H27.45ZM1.5 2.55L9.075 10.125L1.5 17.7V2.55ZM2.5875 18.75L10.125 11.2125L14.475 15.5625C14.775 15.8625 15.225 15.8625 15.525 15.5625L19.875 11.2125L27.4125 18.75H2.5875ZM28.5 17.7L20.925 10.125L28.5 2.55V17.7Z" fill="black"/>
</svg>
