<svg width="33" height="33" viewBox="0 0 33 33" fill="none" xmlns="http://www.w3.org/2000/svg">
<path d="M3.77 32.53H28.77C29.7664 32.5274 30.7212 32.1304 31.4258 31.4258C32.1304 30.7212 32.5274 29.7664 32.53 28.77V3.77C32.53 2.77186 32.1342 1.81446 31.4293 1.10774C30.7245 0.401012 29.7681 0.00264758 28.77 0H3.77C2.77013 0 1.81122 0.397195 1.10421 1.10421C0.397195 1.81122 0 2.77013 0 3.77V28.77C0.00264758 29.7681 0.401012 30.7245 1.10774 31.4293C1.81446 32.1342 2.77186 32.53 3.77 32.53V32.53ZM1.77 3.81C1.77 3.27957 1.98071 2.77086 2.35579 2.39579C2.73086 2.02071 3.23957 1.81 3.77 1.81H28.77C29.3004 1.81 29.8091 2.02071 30.1842 2.39579C30.5593 2.77086 30.77 3.27957 30.77 3.81V28.81C30.77 29.3404 30.5593 29.8491 30.1842 30.2242C29.8091 30.5993 29.3004 30.81 28.77 30.81H3.77C3.23957 30.81 2.73086 30.5993 2.35579 30.2242C1.98071 29.8491 1.77 29.3404 1.77 28.81V3.81Z" fill="black"/>
<path d="M7.99001 14.78H24.51C24.6862 14.7803 24.8586 14.7282 25.0052 14.6304C25.1518 14.5326 25.2661 14.3935 25.3335 14.2308C25.401 14.068 25.4186 13.8888 25.3842 13.716C25.3497 13.5432 25.2648 13.3845 25.14 13.26L20.53 8.54998C20.3594 8.39806 20.1374 8.31671 19.909 8.32243C19.6806 8.32814 19.463 8.42049 19.3001 8.58076C19.1373 8.74102 19.0416 8.9572 19.0323 9.18547C19.0229 9.41373 19.1008 9.63699 19.25 9.80998L22.35 12.99H7.99001C7.76895 13.0134 7.56438 13.1178 7.41569 13.283C7.26701 13.4483 7.18475 13.6627 7.18475 13.885C7.18475 14.1073 7.26701 14.3217 7.41569 14.487C7.56438 14.6522 7.76895 14.7566 7.99001 14.78V14.78ZM24.51 17.79H7.99001C7.81318 17.7911 7.64052 17.8437 7.49311 17.9414C7.34571 18.0391 7.22996 18.1776 7.16001 18.34C7.08892 18.5084 7.06903 18.694 7.10282 18.8736C7.13662 19.0532 7.22259 19.2189 7.35001 19.35L11.97 24.05C12.0527 24.1328 12.1509 24.1986 12.259 24.2434C12.3671 24.2883 12.483 24.3113 12.6 24.3113C12.717 24.3113 12.8329 24.2883 12.941 24.2434C13.0491 24.1986 13.1473 24.1328 13.23 24.05C13.3979 23.8813 13.4922 23.653 13.4922 23.415C13.4922 23.177 13.3979 22.9487 13.23 22.78L10.1 19.6H24.51C24.7487 19.6 24.9776 19.5052 25.1464 19.3364C25.3152 19.1676 25.41 18.9387 25.41 18.7C25.41 18.4613 25.3152 18.2324 25.1464 18.0636C24.9776 17.8948 24.7487 17.8 24.51 17.8V17.79Z" fill="black"/>
</svg>
