<svg width="30" height="28" viewBox="0 0 30 28" fill="none" xmlns="http://www.w3.org/2000/svg">
<path d="M2.88365 0C1.29579 0 0 1.29365 0 2.88365V9.97768C0 11.5655 1.29579 12.8571 2.88365 12.8571H6.42857V15H4.28571V17.1429H10.7143V15H8.57143V12.8571H12.1164C13.7042 12.8571 15 11.5635 15 9.97349V2.88365C15 1.29365 13.7042 0 12.1164 0H2.88365ZM2.88365 2.14286H12.1205C12.5277 2.14286 12.8571 2.47651 12.8571 2.88365V9.97768C12.8571 10.3827 12.5256 10.7143 12.1164 10.7143H2.88365C2.47436 10.7143 2.14286 10.3806 2.14286 9.97349V2.88365C2.14286 2.47651 2.47436 2.14286 2.88365 2.14286ZM17.1429 2.14286V4.28571H20.6878C21.0971 4.28571 21.4286 4.61936 21.4286 5.02651V8.57143H23.5714V5.02651C23.5714 3.43651 22.2756 2.14286 20.6878 2.14286H17.1429ZM17.8836 10.7143C16.2958 10.7143 15 12.0079 15 13.5979V20.692C15 22.2798 16.2958 23.5714 17.8836 23.5714H21.4286V25.7143H19.2857V27.8571H25.7143V25.7143H23.5714V23.5714H27.1163C28.7042 23.5714 30 22.2778 30 20.6878V13.5979C30 12.0079 28.7042 10.7143 27.1163 10.7143H17.8836ZM17.8836 12.8571H27.1205C27.5277 12.8571 27.8571 13.1908 27.8571 13.5979V20.6878C27.8571 21.0949 27.5256 21.4286 27.1163 21.4286H17.8836C17.4744 21.4286 17.1429 21.0949 17.1429 20.6878V13.5979C17.1429 13.1908 17.4744 12.8571 17.8836 12.8571ZM6.42857 19.2857V24.9735C6.42857 26.5635 7.72436 27.8571 9.31222 27.8571H17.1429V25.7143H9.31222C8.90293 25.7143 8.57143 25.3806 8.57143 24.9735V19.2857H6.42857Z" fill="#231F20"/>
</svg>
