<svg width="29" height="40" viewBox="0 0 29 40" fill="none" xmlns="http://www.w3.org/2000/svg">
<path d="M28.1429 10.4286L18.1429 0.428571C18 0.285714 17.8571 0.142857 17.7143 0.142857C17.5714 -1.38368e-07 17.2857 0 17.1429 0H4.28571C1.85714 0 0 1.85714 0 4.28571V35.7143C0 38.1429 1.85714 40 4.28571 40H24.2857C26.7143 40 28.5714 38.1429 28.5714 35.7143V11.4286C28.5714 11.2857 28.5714 11 28.4286 10.8571C28.4286 10.7143 28.2857 10.5714 28.1429 10.4286ZM18.5714 4.85714L23.7143 10H20C19.1429 10 18.5714 9.42857 18.5714 8.57143V4.85714ZM25.7143 35.7143C25.7143 36.5714 25.1429 37.1429 24.2857 37.1429H4.28571C3.42857 37.1429 2.85714 36.5714 2.85714 35.7143V4.28571C2.85714 3.42857 3.42857 2.85714 4.28571 2.85714H15.7143V8.57143C15.7143 11 17.5714 12.8571 20 12.8571H25.7143V35.7143Z" fill="#17BEBB"/>
</svg>
