<svg width="27" height="27" viewBox="0 0 27 27" fill="none" xmlns="http://www.w3.org/2000/svg">
<path d="M26.5 13.25C26.5 20.5679 20.5679 26.5 13.25 26.5C5.93288 26.5 0 20.5679 0 13.25C0 5.93288 5.93288 0 13.25 0C20.5679 0 26.5 5.93288 26.5 13.25Z" fill="#17BEBB"/>
<path d="M7.01465 9.35293C7.01465 9.35293 7.01465 7.79411 8.57347 7.79411C10.1323 7.79411 10.1323 9.35293 10.1323 9.35293V10.9118C10.1323 10.9118 10.1323 12.4706 8.57347 12.4706C7.01465 12.4706 7.01465 10.9118 7.01465 10.9118V9.35293Z" fill="#0A4847"/>
<path d="M16.3677 9.35293C16.3677 9.35293 16.3677 7.79411 17.9265 7.79411C19.4853 7.79411 19.4853 9.35293 19.4853 9.35293V10.9118C19.4853 10.9118 19.4853 12.4706 17.9265 12.4706C16.3677 12.4706 16.3677 10.9118 16.3677 10.9118V9.35293Z" fill="#0A4847"/>
<path d="M20.526 16.8579C20.3872 16.7324 20.1799 16.7246 20.0311 16.8353C20.0007 16.8579 16.9742 19.0956 13.2502 19.0956C9.5355 19.0956 6.49891 16.8579 6.46929 16.8353C6.32042 16.7246 6.1131 16.734 5.97436 16.8579C5.83641 16.9826 5.80523 17.1884 5.9011 17.3474C6.00164 17.515 8.40847 21.4338 13.2502 21.4338C18.0919 21.4338 20.4995 17.515 20.5992 17.3474C20.6951 17.1876 20.6647 16.9826 20.526 16.8579Z" fill="#0A4847"/>
</svg>
