<svg width="30" height="30" viewBox="0 0 30 30" fill="none" xmlns="http://www.w3.org/2000/svg">
<path d="M15 0C6.71679 0 0 6.71679 0 15C0 23.2832 6.71679 30 15 30C23.2832 30 30 23.2832 30 15C30 6.71679 23.2832 0 15 0ZM22.5 15C22.4946 16.9875 21.7027 18.892 20.2974 20.2974C18.892 21.7027 16.9875 22.4946 15 22.5C13.0128 22.4938 11.1087 21.7016 9.70357 20.2964C8.29839 18.8913 7.50622 16.9872 7.5 15C7.50706 13.013 8.2995 11.1095 9.7045 9.7045C11.1095 8.2995 13.013 7.50706 15 7.5C16.9872 7.50622 18.8913 8.29839 20.2964 9.70357C21.7016 11.1087 22.4938 13.0128 22.5 15V15ZM18.5207 7.19357C17.445 6.70607 16.2557 6.42857 15 6.42857C13.7443 6.42857 12.555 6.70607 11.4793 7.19357L8.32071 4.035C10.3294 2.79895 12.6415 2.14398 15 2.14286C17.4482 2.14286 19.7293 2.8425 21.6793 4.035L18.5207 7.19357ZM7.19357 18.5207L4.035 21.6793C2.8425 19.7304 2.14286 17.4482 2.14286 15C2.14286 12.5518 2.8425 10.2696 4.035 8.32071L7.19357 11.4793C6.70714 12.555 6.42857 13.7443 6.42857 15C6.42857 16.2557 6.70714 17.445 7.19357 18.5207ZM11.4793 22.8064C12.555 23.2939 13.7443 23.5714 15 23.5714C16.2557 23.5714 17.445 23.2939 18.5207 22.8064L21.6793 25.965C19.6706 27.2011 17.3585 27.856 15 27.8571C12.5518 27.8571 10.2707 27.1575 8.32071 25.965L11.4793 22.8064ZM22.8064 11.4793L25.965 8.32071C27.1575 10.2696 27.8571 12.5518 27.8571 15C27.8571 17.4482 27.1575 19.7304 25.965 21.6793L22.8064 18.5207C23.2929 17.445 23.5714 16.2557 23.5714 15C23.5714 13.7443 23.2929 12.555 22.8064 11.4793V11.4793Z" fill="black"/>
</svg>
