<svg width="27" height="27" viewBox="0 0 27 27" fill="none" xmlns="http://www.w3.org/2000/svg">
<path d="M26.5 13.25C26.5 20.5679 20.5679 26.5 13.25 26.5C5.93288 26.5 0 20.5679 0 13.25C0 5.93288 5.93288 0 13.25 0C20.5679 0 26.5 5.93288 26.5 13.25Z" fill="#A7A7A7"/>
<path d="M10.1324 12.0809C10.1324 13.5883 9.26025 14.8088 8.18388 14.8088C7.10751 14.8088 6.23535 13.5883 6.23535 12.0809C6.23535 10.5743 7.10751 9.35296 8.18388 9.35296C9.26025 9.35296 10.1324 10.5743 10.1324 12.0809Z" fill="#222222"/>
<path d="M20.2647 12.0809C20.2647 13.5883 19.3926 14.8088 18.3162 14.8088C17.2398 14.8088 16.3677 13.5883 16.3677 12.0809C16.3677 10.5743 17.2398 9.35296 18.3162 9.35296C19.3926 9.35296 20.2647 10.5743 20.2647 12.0809Z" fill="#222222"/>
<path d="M18.7058 19.4853H7.79406C7.36382 19.4853 7.01465 19.1369 7.01465 18.7059C7.01465 18.2749 7.36382 17.9265 7.79406 17.9265H18.7058C19.1368 17.9265 19.4852 18.2749 19.4852 18.7059C19.4852 19.1369 19.1368 19.4853 18.7058 19.4853Z" fill="#222222"/>
</svg>
