<svg width="64" height="64" viewBox="0 0 64 64" fill="none" xmlns="http://www.w3.org/2000/svg">
<path d="M34.6667 21.3333C36.7884 21.3333 38.8232 22.1762 40.3235 23.6765C41.8238 25.1768 42.6667 27.2116 42.6667 29.3333C42.6667 30.0406 42.9476 30.7189 43.4477 31.219C43.9478 31.719 44.6261 32 45.3333 32C46.0406 32 46.7189 31.719 47.219 31.219C47.7191 30.7189 48 30.0406 48 29.3333C48 25.7971 46.5952 22.4057 44.0948 19.9052C41.5943 17.4048 38.2029 16 34.6667 16C33.9594 16 33.2811 16.281 32.781 16.781C32.281 17.2811 32 17.9594 32 18.6667C32 19.3739 32.281 20.0522 32.781 20.5523C33.2811 21.0524 33.9594 21.3333 34.6667 21.3333Z" fill="black"/>
<path d="M34.6666 10.6668C39.6173 10.6668 44.3653 12.6334 47.8659 16.1341C51.3666 19.6348 53.3333 24.3827 53.3333 29.3334C53.3333 30.0407 53.6142 30.719 54.1143 31.2191C54.6144 31.7192 55.2927 32.0001 56 32.0001C56.7072 32.0001 57.3855 31.7192 57.8856 31.2191C58.3857 30.719 58.6666 30.0407 58.6666 29.3334C58.6666 22.9682 56.1381 16.8637 51.6372 12.3629C47.1363 7.862 41.0318 5.33344 34.6666 5.33344C33.9594 5.33344 33.2811 5.61439 32.781 6.11448C32.2809 6.61458 32 7.29286 32 8.0001C32 8.70735 32.2809 9.38562 32.781 9.88572C33.2811 10.3858 33.9594 10.6668 34.6666 10.6668ZM58 42.4268C57.8533 41.9987 57.6001 41.615 57.2642 41.3117C56.9283 41.0085 56.5208 40.7957 56.08 40.6934L40.0799 37.0401C39.6456 36.9416 39.1936 36.9535 38.7651 37.0746C38.3365 37.1957 37.9451 37.4222 37.6266 37.7334C37.2533 38.0801 37.2266 38.1068 35.4933 41.4134C29.7418 38.7632 25.1333 34.1357 22.5066 28.3734C25.8933 26.6668 25.92 26.6668 26.2666 26.2668C26.5778 25.9483 26.8043 25.5569 26.9255 25.1283C27.0466 24.6998 27.0584 24.2477 26.9599 23.8134L23.3066 8.0001C23.2043 7.55929 22.9916 7.15176 22.6883 6.81587C22.3851 6.47997 22.0014 6.22677 21.5733 6.0801C20.9505 5.85767 20.3074 5.6969 19.6533 5.6001C18.9793 5.44382 18.2915 5.3545 17.5999 5.33344C14.3466 5.33344 11.2266 6.62581 8.92611 8.92626C6.62566 11.2267 5.33328 14.3468 5.33328 17.6001C5.34739 28.4873 9.67858 38.9246 17.377 46.623C25.0755 54.3215 35.5127 58.6527 46.3999 58.6668C48.0108 58.6668 49.6059 58.3495 51.0942 57.733C52.5825 57.1166 53.9347 56.213 55.0738 55.0739C56.2129 53.9349 57.1164 52.5826 57.7329 51.0944C58.3493 49.6061 58.6666 48.011 58.6666 46.4001C58.6674 45.7214 58.6139 45.0436 58.5066 44.3734C58.3945 43.7111 58.225 43.0597 58 42.4268Z" fill="black"/>
</svg>
