<svg width="33" height="40" viewBox="0 0 33 40" fill="none" xmlns="http://www.w3.org/2000/svg">
<path d="M33 16.503C33.0006 13.3753 32.1122 10.3119 30.4384 7.66981C28.7645 5.02772 26.3743 2.91577 23.5461 1.58014C20.718 0.244513 17.5684 -0.259786 14.4647 0.126025C11.3609 0.511836 8.43067 1.77186 6.01559 3.75925C3.6005 5.74663 1.80001 8.3795 0.823985 11.351C-0.152044 14.3225 -0.26341 17.5101 0.502867 20.5425C1.26914 23.5748 2.8815 26.327 5.152 28.478C7.42251 30.6291 10.2576 32.0906 13.3269 32.692V35.5415H10.1538C9.98554 35.5415 9.82412 35.6083 9.70511 35.7273C9.58609 35.8463 9.51923 36.0078 9.51923 36.1761V38.0799H8.88462C8.71631 38.0799 8.55489 38.1468 8.43587 38.2658C8.31686 38.3848 8.25 38.5462 8.25 38.7145C8.25 38.8828 8.31686 39.0443 8.43587 39.1633C8.55489 39.2823 8.71631 39.3491 8.88462 39.3491H24.1154C24.2837 39.3491 24.4451 39.2823 24.5641 39.1633C24.6831 39.0443 24.75 38.8828 24.75 38.7145C24.75 38.5462 24.6831 38.3848 24.5641 38.2658C24.4451 38.1468 24.2837 38.0799 24.1154 38.0799H23.4808V36.1761C23.4808 36.0078 23.4139 35.8463 23.2949 35.7273C23.1759 35.6083 23.0145 35.5415 22.8462 35.5415H19.6731V32.692C23.4266 31.9565 26.8079 29.9397 29.2389 26.9867C31.6698 24.0337 32.9993 20.3279 33 16.503ZM1.26923 16.503C1.26923 13.4906 2.1625 10.5459 3.83608 8.04123C5.50966 5.53654 7.88838 3.58438 10.6714 2.4316C13.4545 1.27882 16.5169 0.977197 19.4714 1.56488C22.4259 2.15256 25.1397 3.60315 27.2698 5.73321C29.3998 7.86327 30.8504 10.5771 31.4381 13.5316C32.0258 16.4861 31.7242 19.5485 30.5714 22.3316C29.4186 25.1146 27.4664 27.4933 24.9618 29.1669C22.4571 30.8405 19.5124 31.7338 16.5 31.7338C12.4605 31.7338 8.58654 30.1291 5.73022 27.2728C2.8739 24.4165 1.26923 20.5424 1.26923 16.503V16.503ZM22.2115 38.0799H10.7885V36.8107H22.2115V38.0799ZM18.4038 35.5415H14.5962V32.8888C15.8608 33.0411 17.1392 33.0411 18.4038 32.8888V35.5415ZM22.4083 26.5363C22.5141 26.6163 22.6437 26.6587 22.7763 26.6568C22.9108 26.6573 23.0419 26.6151 23.1508 26.5363C23.2591 26.4571 23.3395 26.3457 23.3806 26.218C23.4216 26.0903 23.4212 25.9529 23.3792 25.8255L21.1263 18.997L27.0219 14.7705C27.1303 14.6921 27.2111 14.5814 27.2528 14.4543C27.2945 14.3272 27.2949 14.1902 27.2541 14.0628C27.2133 13.9354 27.1333 13.8242 27.0255 13.745C26.9177 13.6658 26.7876 13.6227 26.6538 13.6218H19.3558L17.1346 6.78703C17.0929 6.66007 17.0121 6.54952 16.9039 6.47114C16.7956 6.39277 16.6654 6.35058 16.5317 6.35058C16.3981 6.35058 16.2678 6.39277 16.1596 6.47114C16.0513 6.54952 15.9706 6.66007 15.9288 6.78703L13.6442 13.6218H6.34615C6.21239 13.6227 6.08232 13.6658 5.97452 13.745C5.86672 13.8242 5.78669 13.9354 5.74587 14.0628C5.70505 14.1902 5.70553 14.3272 5.74723 14.4543C5.78893 14.5814 5.86973 14.6921 5.97808 14.7705L11.8737 18.997L9.62077 25.8255C9.58043 25.9522 9.58092 26.0884 9.62216 26.2148C9.66341 26.3412 9.74333 26.4515 9.85063 26.5301C9.95794 26.6086 10.0872 26.6515 10.2202 26.6526C10.3532 26.6537 10.4831 26.613 10.5917 26.5363L16.5 22.3097L22.4083 26.5363ZM11.4231 24.3722L13.2127 18.9463C13.254 18.8182 13.2534 18.6803 13.2112 18.5526C13.169 18.4248 13.0873 18.3138 12.9779 18.2355L8.30712 14.8911H14.0885C14.2276 14.8979 14.3652 14.8587 14.4799 14.7796C14.5946 14.7004 14.68 14.5857 14.7231 14.4532L16.5 9.00819L18.296 14.4532C18.339 14.5857 18.4245 14.7004 18.5391 14.7796C18.6538 14.8587 18.7914 14.8979 18.9306 14.8911H24.7119L20.0412 18.2355C19.9317 18.3138 19.85 18.4248 19.8078 18.5526C19.7656 18.6803 19.7651 18.8182 19.8063 18.9463L21.5769 24.3722L16.8808 21.0088C16.7733 20.9322 16.6446 20.8911 16.5127 20.8911C16.3808 20.8911 16.2521 20.9322 16.1446 21.0088L11.4231 24.3722Z" fill="black"/>
</svg>
