<svg width="20" height="23" viewBox="0 0 20 23" fill="none" xmlns="http://www.w3.org/2000/svg">
<path d="M19 7.14218H17V1.49719C17 1.19776 16.8946 0.910598 16.7071 0.69887C16.5196 0.487142 16.2652 0.368195 16 0.368195H4C3.73478 0.368195 3.48043 0.487142 3.29289 0.69887C3.10536 0.910598 3 1.19776 3 1.49719V7.14218H1C0.734784 7.14218 0.48043 7.26113 0.292893 7.47285C0.105357 7.68458 0 7.97175 0 8.27117V18.4321C0 18.7316 0.105357 19.0187 0.292893 19.2305C0.48043 19.4422 0.734784 19.5611 1 19.5611H2.32L2 21.6385C1.97713 21.8006 1.98587 21.9665 2.02559 22.1244C2.06531 22.2824 2.13507 22.4286 2.23 22.553C2.32498 22.6784 2.44314 22.7787 2.57617 22.847C2.70921 22.9153 2.85388 22.9498 3 22.9481H17C17.1444 22.9481 17.2872 22.9128 17.4184 22.8446C17.5496 22.7764 17.6661 22.6769 17.76 22.553C17.8549 22.4286 17.9247 22.2824 17.9644 22.1244C18.0041 21.9665 18.0129 21.8006 17.99 21.6385L17.68 19.5611H19C19.2652 19.5611 19.5196 19.4422 19.7071 19.2305C19.8946 19.0187 20 18.7316 20 18.4321V8.27117C20 7.97175 19.8946 7.68458 19.7071 7.47285C19.5196 7.26113 19.2652 7.14218 19 7.14218ZM5 2.62619H15V7.14218H5V2.62619ZM15.82 20.6901H4.18L4.35 19.5611L4.68 17.3032L4.85 16.1742H15.15L15.32 17.3032L15.65 19.5611L15.82 20.6901ZM18 17.3032H17.35L17 14.8645C16.9617 14.5974 16.8396 14.3547 16.6561 14.1806C16.4725 14.0065 16.2397 13.9127 16 13.9162H4C3.76031 13.9127 3.52749 14.0065 3.34394 14.1806C3.16039 14.3547 3.03833 14.5974 3 14.8645L2.65 17.3032H2V9.40017H18V17.3032Z" fill="white"/>
<path d="M15 12.7871C15.5523 12.7871 16 12.2817 16 11.6581C16 11.0346 15.5523 10.5292 15 10.5292C14.4477 10.5292 14 11.0346 14 11.6581C14 12.2817 14.4477 12.7871 15 12.7871Z" fill="white"/>
</svg>
