<svg width="33" height="33" viewBox="0 0 33 33" fill="none" xmlns="http://www.w3.org/2000/svg">
<path d="M17.6192 2.24548C17.2395 2.24548 16.9317 2.55331 16.9317 2.93298V6.13248C16.9317 6.51215 17.2395 6.81998 17.6192 6.81998C17.9989 6.81998 18.3067 6.51215 18.3067 6.13248V2.93298C18.3067 2.55331 17.9989 2.24548 17.6192 2.24548ZM20.341 2.24548C19.9613 2.24548 19.6535 2.55331 19.6535 2.93298V6.13248C19.6535 6.51215 19.9613 6.81998 20.341 6.81998C20.7207 6.81998 21.0285 6.51215 21.0285 6.13248V2.93298C21.0285 2.55331 20.7207 2.24548 20.341 2.24548ZM23.0628 2.24548C22.6831 2.24548 22.3753 2.55331 22.3753 2.93298V6.13248C22.3753 6.51215 22.6831 6.81998 23.0628 6.81998C23.4425 6.81998 23.7503 6.51215 23.7503 6.13248V2.93298C23.7503 2.55331 23.4425 2.24548 23.0628 2.24548ZM25.7843 2.24548C25.4046 2.24548 25.0968 2.55331 25.0968 2.93298V6.13248C25.0968 6.51215 25.4046 6.81998 25.7843 6.81998C26.1639 6.81998 26.4718 6.51215 26.4718 6.13248V2.93298C26.4718 2.55331 26.1639 2.24548 25.7843 2.24548ZM28.5061 2.24548C28.1264 2.24548 27.8186 2.55331 27.8186 2.93298V6.13248C27.8186 6.51215 28.1264 6.81998 28.5061 6.81998C28.8857 6.81998 29.1936 6.51215 29.1936 6.13248V2.93298C29.1936 2.55331 28.8857 2.24548 28.5061 2.24548ZM6.63733 2.36499H3.67685C3.29718 2.36499 2.98935 2.67282 2.98935 3.05249V6.01297C2.98935 6.39264 3.29718 6.70047 3.67685 6.70047H6.63733C7.017 6.70047 7.32483 6.39264 7.32483 6.01297V3.05249C7.32483 2.67282 7.017 2.36499 6.63733 2.36499ZM5.94983 5.32547H4.36435V3.73999H5.94983V5.32547V5.32547ZM12.4727 2.64194H10.0664C9.68677 2.64194 9.37894 2.94977 9.37894 3.32944V5.73569C9.37894 6.11536 9.68677 6.42319 10.0664 6.42319H12.4727C12.8524 6.42319 13.1602 6.11536 13.1602 5.73569V3.32944C13.1602 2.94977 12.8524 2.64194 12.4727 2.64194ZM11.7852 5.04819H10.7539V4.01694H11.7852V5.04819ZM17.6192 14.5104C17.9989 14.5104 18.3067 14.2025 18.3067 13.8229V10.6234C18.3067 10.2437 17.9989 9.93588 17.6192 9.93588C17.2395 9.93588 16.9317 10.2437 16.9317 10.6234V13.8229C16.9317 14.2025 17.2395 14.5104 17.6192 14.5104ZM20.341 14.5104C20.7207 14.5104 21.0285 14.2025 21.0285 13.8229V10.6234C21.0285 10.2437 20.7207 9.93588 20.341 9.93588C19.9613 9.93588 19.6535 10.2437 19.6535 10.6234V13.8229C19.6535 14.2025 19.9613 14.5104 20.341 14.5104ZM23.0628 14.5104C23.4425 14.5104 23.7503 14.2025 23.7503 13.8229V10.6234C23.7503 10.2437 23.4425 9.93588 23.0628 9.93588C22.6831 9.93588 22.3753 10.2437 22.3753 10.6234V13.8229C22.3753 14.2025 22.6831 14.5104 23.0628 14.5104ZM25.7843 14.5104C26.1639 14.5104 26.4718 14.2025 26.4718 13.8229V10.6234C26.4718 10.2437 26.1639 9.93588 25.7843 9.93588C25.4046 9.93588 25.0968 10.2437 25.0968 10.6234V13.8229C25.0968 14.2025 25.4046 14.5104 25.7843 14.5104ZM28.5061 14.5104C28.8857 14.5104 29.1936 14.2025 29.1936 13.8229V10.6234C29.1936 10.2437 28.8857 9.93588 28.5061 9.93588C28.1264 9.93588 27.8186 10.2437 27.8186 10.6234V13.8229C27.8186 14.2025 28.1264 14.5104 28.5061 14.5104ZM3.67685 14.3909H6.63733C7.017 14.3909 7.32483 14.083 7.32483 13.7034V10.7429C7.32483 10.3632 7.017 10.0554 6.63733 10.0554H3.67685C3.29718 10.0554 2.98935 10.3632 2.98935 10.7429V13.7034C2.98935 14.083 3.29718 14.3909 3.67685 14.3909ZM4.36435 11.4304H5.94983V13.0159H4.36435V11.4304ZM10.0664 14.1136H12.4727C12.8524 14.1136 13.1602 13.8058 13.1602 13.4261V11.0198C13.1602 10.6402 12.8524 10.3323 12.4727 10.3323H10.0664C9.68677 10.3323 9.37894 10.6402 9.37894 11.0198V13.4261C9.37894 13.8058 9.68677 14.1136 10.0664 14.1136ZM10.7539 11.7073H11.7852V12.7386H10.7539V11.7073Z" fill="black"/>
<path d="M0.6875 24.4459H15.8091V27.8591C15.0276 28.0925 14.416 28.7036 14.1821 29.485H9.58371C9.20404 29.485 8.89621 29.7928 8.89621 30.1725C8.89621 30.5521 9.20404 30.86 9.58371 30.86H14.1803C14.4781 31.8642 15.3985 32.6035 16.498 32.6035C17.5975 32.6035 18.5179 31.8642 18.8157 30.86H23.4163C23.796 30.86 24.1038 30.5521 24.1038 30.1725C24.1038 29.7928 23.796 29.485 23.4163 29.485H18.8139C18.5797 28.7027 17.967 28.091 17.1841 27.8583V24.4459H32.3125C32.6922 24.4459 33 24.138 33 23.7584V16.0683V8.3779V0.6875C33 0.307831 32.6922 0 32.3125 0H0.6875C0.307831 0 0 0.307831 0 0.6875V8.3779V16.0683V23.7584C0 24.138 0.307831 24.4459 0.6875 24.4459ZM17.5511 30.1755C17.5511 30.7562 17.0787 31.2285 16.498 31.2285C15.9188 31.2285 15.448 30.7587 15.4454 30.1801C15.4454 30.1774 15.4469 30.1752 15.4469 30.1725C15.4469 30.1704 15.4458 30.1688 15.4458 30.1668C15.4506 29.5913 15.9185 29.1245 16.4949 29.1227C16.4955 29.1227 16.496 29.1231 16.4966 29.1231C16.4976 29.1231 16.4984 29.1225 16.4993 29.1225C17.0794 29.1233 17.5511 29.5952 17.5511 30.1755ZM31.625 15.3808H1.375V9.0654H31.625V15.3808ZM31.625 23.0709H1.375V16.7558H31.625V23.0709ZM1.375 1.375H31.625V7.6904H1.375V1.375Z" fill="black"/>
<path d="M17.6192 22.2007C17.9989 22.2007 18.3067 21.8929 18.3067 21.5132V18.3134C18.3067 17.9337 17.9989 17.6259 17.6192 17.6259C17.2395 17.6259 16.9317 17.9337 16.9317 18.3134V21.5132C16.9317 21.8929 17.2395 22.2007 17.6192 22.2007ZM20.341 22.2007C20.7207 22.2007 21.0285 21.8929 21.0285 21.5132V18.3134C21.0285 17.9337 20.7207 17.6259 20.341 17.6259C19.9613 17.6259 19.6535 17.9337 19.6535 18.3134V21.5132C19.6535 21.8929 19.9613 22.2007 20.341 22.2007ZM23.0628 22.2007C23.4425 22.2007 23.7503 21.8929 23.7503 21.5132V18.3134C23.7503 17.9337 23.4425 17.6259 23.0628 17.6259C22.6831 17.6259 22.3753 17.9337 22.3753 18.3134V21.5132C22.3753 21.8929 22.6831 22.2007 23.0628 22.2007ZM25.7843 22.2007C26.1639 22.2007 26.4718 21.8929 26.4718 21.5132V18.3134C26.4718 17.9337 26.1639 17.6259 25.7843 17.6259C25.4046 17.6259 25.0968 17.9337 25.0968 18.3134V21.5132C25.0968 21.8929 25.4046 22.2007 25.7843 22.2007ZM28.5061 22.2007C28.8857 22.2007 29.1936 21.8929 29.1936 21.5132V18.3134C29.1936 17.9337 28.8857 17.6259 28.5061 17.6259C28.1264 17.6259 27.8186 17.9337 27.8186 18.3134V21.5132C27.8186 21.8929 28.1264 22.2007 28.5061 22.2007ZM3.67685 22.0812H6.63733C7.017 22.0812 7.32483 21.7734 7.32483 21.3937V18.4333C7.32483 18.0536 7.017 17.7458 6.63733 17.7458H3.67685C3.29718 17.7458 2.98935 18.0536 2.98935 18.4333V21.3937C2.98935 21.7734 3.29718 22.0812 3.67685 22.0812ZM4.36435 19.1208H5.94983V20.7062H4.36435V19.1208ZM10.0664 21.804H12.4727C12.8524 21.804 13.1602 21.4961 13.1602 21.1165V18.7102C13.1602 18.3305 12.8524 18.0227 12.4727 18.0227H10.0664C9.68677 18.0227 9.37894 18.3305 9.37894 18.7102V21.1165C9.37894 21.4961 9.68677 21.804 10.0664 21.804ZM10.7539 19.3977H11.7852V20.429H10.7539V19.3977Z" fill="black"/>
</svg>
