<svg width="30" height="35" viewBox="0 0 30 35" fill="none" xmlns="http://www.w3.org/2000/svg">
<path d="M28.7431 9.99494H21.2468V6.24684C21.2468 4.59007 20.5887 3.00117 19.4172 1.82966C18.2457 0.658147 16.6568 0 15 0C13.3432 0 11.7543 0.658147 10.5828 1.82966C9.41131 3.00117 8.75316 4.59007 8.75316 6.24684V9.99494H1.25695C1.08065 9.99387 0.906118 10.0301 0.744828 10.1013C0.583538 10.1725 0.439144 10.2771 0.321136 10.408C0.203129 10.539 0.114181 10.6935 0.0601398 10.8613C0.00609849 11.0292 -0.0118125 11.2065 0.00758433 11.3817L2.50632 33.8704C2.54029 34.1774 2.68677 34.4609 2.9175 34.6662C3.14822 34.8716 3.44683 34.9842 3.75569 34.9823H26.2443C26.5532 34.9842 26.8518 34.8716 27.0825 34.6662C27.3132 34.4609 27.4597 34.1774 27.4937 33.8704L29.9924 11.3817C30.0118 11.2065 29.9939 11.0292 29.9399 10.8613C29.8858 10.6935 29.7969 10.539 29.6789 10.408C29.5609 10.2771 29.4165 10.1725 29.2552 10.1013C29.0939 10.0301 28.9194 9.99387 28.7431 9.99494ZM11.2519 6.24684C11.2519 5.25278 11.6468 4.29944 12.3497 3.59653C13.0526 2.89362 14.0059 2.49874 15 2.49874C15.9941 2.49874 16.9474 2.89362 17.6503 3.59653C18.3532 4.29944 18.7481 5.25278 18.7481 6.24684V9.99494H11.2519V6.24684ZM25.1199 32.4836H4.88012L2.65624 12.4937H27.3438L25.1199 32.4836Z" fill="black"/>
<path d="M18.4358 17.2788C17.7718 16.8381 17.0297 16.5285 16.2494 16.3667V14.9924C16.2494 14.6611 16.1177 14.3433 15.8834 14.109C15.6491 13.8747 15.3314 13.743 15 13.743C14.6686 13.743 14.3509 13.8747 14.1166 14.109C13.8823 14.3433 13.7506 14.6611 13.7506 14.9924V16.3667C12.9703 16.5285 12.2282 16.8381 11.5642 17.2788L10.5897 16.3042C10.3507 16.0996 10.0433 15.9926 9.72885 16.0048C9.41441 16.0169 9.11614 16.1473 8.89364 16.3698C8.67113 16.5923 8.54078 16.8905 8.52864 17.205C8.51649 17.5194 8.62344 17.8268 8.82812 18.0659L9.80263 19.0404C9.35607 19.7071 9.04218 20.4537 8.8781 21.2392H7.50379C7.17244 21.2392 6.85466 21.3709 6.62036 21.6052C6.38605 21.8395 6.25443 22.1573 6.25443 22.4886C6.25443 22.82 6.38605 23.1378 6.62036 23.3721C6.85466 23.6064 7.17244 23.738 7.50379 23.738H8.8781C9.03987 24.5183 9.34945 25.2604 9.79014 25.9244L8.81563 26.8989C8.68484 27.0109 8.57862 27.1487 8.50363 27.3037C8.42864 27.4587 8.3865 27.6276 8.37985 27.7996C8.37321 27.9717 8.4022 28.1433 8.46501 28.3036C8.52782 28.4639 8.6231 28.6095 8.74485 28.7313C8.86661 28.853 9.01222 28.9483 9.17255 29.0111C9.33287 29.0739 9.50445 29.1029 9.67651 29.0963C9.84857 29.0896 10.0174 29.0475 10.1724 28.9725C10.3274 28.8975 10.4652 28.7913 10.5772 28.6605L11.5517 27.686C12.2185 28.1325 12.9651 28.4464 13.7506 28.6105V29.9848C13.7506 30.3162 13.8823 30.634 14.1166 30.8683C14.3509 31.1026 14.6686 31.2342 15 31.2342C15.3314 31.2342 15.6491 31.1026 15.8834 30.8683C16.1177 30.634 16.2494 30.3162 16.2494 29.9848V28.6105C17.0297 28.4487 17.7718 28.1392 18.4358 27.6985L19.4103 28.673C19.6493 28.8777 19.9567 28.9846 20.2712 28.9725C20.5856 28.9603 20.8839 28.83 21.1064 28.6075C21.3289 28.385 21.4592 28.0867 21.4714 27.7723C21.4835 27.4578 21.3766 27.1504 21.1719 26.9114L20.1974 25.9369C20.6439 25.2701 20.9578 24.5235 21.1219 23.738H22.4962C22.8276 23.738 23.1453 23.6064 23.3796 23.3721C23.6139 23.1378 23.7456 22.82 23.7456 22.4886C23.7456 22.1573 23.6139 21.8395 23.3796 21.6052C23.1453 21.3709 22.8276 21.2392 22.4962 21.2392H21.1219C20.9601 20.4589 20.6506 19.7168 20.2099 19.0529L21.1844 18.0783C21.3891 17.8393 21.496 17.5319 21.4839 17.2175C21.4717 16.903 21.3414 16.6048 21.1189 16.3823C20.8964 16.1597 20.5981 16.0294 20.2836 16.0173C19.9692 16.0051 19.6618 16.1121 19.4228 16.3167L18.4358 17.2788ZM15 26.2367C14.2587 26.2367 13.534 26.0169 12.9177 25.6051C12.3013 25.1932 11.8209 24.6078 11.5372 23.923C11.2535 23.2381 11.1793 22.4845 11.3239 21.7574C11.4685 21.0303 11.8255 20.3625 12.3497 19.8383C12.8739 19.3141 13.5417 18.9572 14.2688 18.8125C14.9958 18.6679 15.7495 18.7421 16.4343 19.0258C17.1192 19.3095 17.7046 19.7899 18.1164 20.4063C18.5283 21.0227 18.7481 21.7473 18.7481 22.4886C18.7481 23.4827 18.3532 24.436 17.6503 25.1389C16.9474 25.8418 15.9941 26.2367 15 26.2367Z" fill="black"/>
</svg>
