<svg width="32" height="33" viewBox="0 0 32 33" fill="none" xmlns="http://www.w3.org/2000/svg">
<path d="M26.0352 8.91113e-06C25.5653 0.000876599 25.0985 0.0651126 24.6477 0.186426V0.184308C23.7461 0.424874 22.9066 0.897341 22.2243 1.58032C20.9112 2.89367 20.5155 4.71286 20.8388 6.4081L15.8141 11.4308C15.4818 11.1664 15.0801 11.0241 14.6786 11.024C14.2124 11.024 13.7402 11.2041 13.3843 11.56L12.8547 12.0896L5.87462 5.10954L6.17543 4.80873C6.29567 4.68797 6.35215 4.51772 6.32796 4.34904L6.10129 2.7539C6.08007 2.60715 5.99969 2.47548 5.87886 2.38954L2.68858 0.112283C2.60035 0.047983 2.49478 0.0118056 2.38565 0.00848242V0.0106008C2.23817 0.00777887 2.0959 0.065142 1.99164 0.169479L0.167712 1.99128C-0.0197385 2.17897 -0.0439343 2.47469 0.110516 2.69035L2.38777 5.88063C2.47371 6.00146 2.60538 6.08184 2.75213 6.10306L4.34727 6.32972C4.51665 6.35462 4.68784 6.29808 4.80908 6.1772L5.10777 5.87639L12.0878 12.8564L11.5603 13.3839C10.8991 14.0451 10.8617 15.0975 11.4311 15.8137L6.40422 20.8406C4.70959 20.5183 2.89102 20.9144 1.57855 22.226C0.214041 23.5907 -0.314457 25.5828 0.184659 27.4457C0.209307 27.5376 0.257678 27.6213 0.324917 27.6886C0.392157 27.7559 0.475902 27.8043 0.567752 27.8289C0.659602 27.8536 0.756326 27.8537 0.848223 27.8292C0.940119 27.8047 1.02396 27.7565 1.09132 27.6893L3.82403 24.9545L5.83014 25.6239L6.49743 27.63L3.76472 30.3627C3.69758 30.4301 3.64935 30.5139 3.62484 30.6058C3.60034 30.6977 3.60043 30.7944 3.62511 30.8863C3.64979 30.9781 3.69819 31.0619 3.76545 31.1291C3.83271 31.1964 3.91647 31.2447 4.00833 31.2694C5.87165 31.7687 7.86244 31.2369 9.22802 29.8755C10.5411 28.5623 10.9368 26.743 10.6134 25.0477L14.7125 20.9487L25.2324 31.4685C25.9428 32.1789 27.1105 32.179 27.821 31.4685L31.4667 27.8228C32.1777 27.1118 32.1778 25.943 31.4667 25.232L20.9469 14.7143L25.0459 10.6152C26.7411 10.9383 28.5585 10.5425 29.8716 9.22978C29.8723 9.22979 29.873 9.22979 29.8737 9.22978C31.2383 7.86524 31.7666 5.87292 31.2676 4.0101C31.243 3.91824 31.1946 3.83448 31.1274 3.76722C31.0601 3.69996 30.9764 3.65156 30.8845 3.62688C30.7927 3.6022 30.696 3.60211 30.6041 3.62661C30.5122 3.65111 30.4283 3.69935 30.361 3.76649L27.6282 6.49919L25.6221 5.8319L24.9527 3.8258L27.6876 1.09309C27.7547 1.02572 27.8029 0.941887 27.8274 0.84999C27.8519 0.758094 27.8519 0.661369 27.8272 0.569519C27.8025 0.47767 27.7541 0.393925 27.6868 0.326685C27.6196 0.259445 27.5358 0.211075 27.4439 0.186426C26.9783 0.0616419 26.5052 -0.000858777 26.0352 8.91113e-06ZM25.4654 1.19477C25.6476 1.20643 25.8314 1.23079 26.014 1.23079L23.9486 3.29621C23.8777 3.36762 23.8281 3.45735 23.8052 3.55537C23.7824 3.65339 23.7873 3.75583 23.8194 3.85122L24.6795 6.43141C24.7061 6.51133 24.751 6.58395 24.8105 6.64352C24.8701 6.70309 24.9427 6.74796 25.0226 6.77458L27.6028 7.63464C27.6984 7.66646 27.801 7.67102 27.899 7.64782C27.997 7.62462 28.0867 7.57458 28.1578 7.50331L30.2211 5.44C30.2112 6.55607 29.9152 7.65251 29.1048 8.46293C27.9745 9.59147 26.3871 9.94573 24.9443 9.56449C24.8523 9.54016 24.7555 9.54047 24.6636 9.56538C24.5718 9.5903 24.4881 9.63894 24.421 9.70642L9.70465 24.4228C9.63717 24.4899 9.58853 24.5736 9.56362 24.6654C9.5387 24.7572 9.53839 24.854 9.56272 24.946C9.94425 26.3894 9.59044 27.976 8.46116 29.1065C7.64926 29.916 6.55404 30.2126 5.43824 30.2229L7.50154 28.1596C7.57281 28.0884 7.62286 27.9988 7.64605 27.9008C7.66925 27.8027 7.66469 27.7002 7.63288 27.6046L6.77281 25.0244C6.74619 24.9445 6.70132 24.8719 6.64175 24.8123C6.58219 24.7527 6.50956 24.7079 6.42964 24.6812L3.84945 23.8212C3.75387 23.7894 3.65132 23.7848 3.55329 23.808C3.45526 23.8312 3.36563 23.8812 3.29444 23.9525L1.22902 26.0179C1.23816 24.9007 1.53421 23.8042 2.3454 22.9929C3.47564 21.8636 5.06459 21.51 6.50802 21.8913C6.59971 21.9153 6.69607 21.9147 6.7875 21.8898C6.87893 21.8649 6.96225 21.8165 7.02914 21.7494L21.7476 7.03303C21.8151 6.96593 21.8638 6.88226 21.8887 6.79041C21.9136 6.69857 21.9139 6.60179 21.8896 6.50979C21.5079 5.06595 21.8608 3.47788 22.9911 2.34717C23.5365 1.80129 24.2071 1.42287 24.9273 1.23079C25.1024 1.18415 25.2831 1.18311 25.4654 1.19477ZM2.43226 1.26044L5.05905 3.13733L5.21581 4.23465L4.72434 4.72611L4.23288 5.21757L3.13556 5.06081L1.25868 2.43403L2.43226 1.26044ZM14.6786 12.1087C14.8046 12.1087 14.9228 12.1503 15.0345 12.2125L12.2128 15.0341C12.0498 14.7492 12.0792 14.3987 12.3272 14.1508L14.1511 12.3269C14.3001 12.1779 14.4859 12.1087 14.6786 12.1087ZM20.18 15.4811L30.6999 25.9989C30.9987 26.2977 30.9988 26.757 30.6999 27.0559L27.0542 30.7017C26.7548 31.0011 26.2986 31.0011 25.9992 30.7017L15.4793 20.1818L16.5343 19.1268L27.0542 29.6467L27.821 28.8799L17.3012 18.36L18.3582 17.3029L28.8781 27.8228L29.6449 27.0559L19.1251 16.5361L20.18 15.4811Z" fill="black"/>
</svg>
