<svg width="33" height="34" viewBox="0 0 33 34" fill="none" xmlns="http://www.w3.org/2000/svg">
<path d="M30.7607 23.4929C31.625 22.7857 32.2143 21.6464 32.2143 20.4286C32.2143 18.2679 30.4464 16.5 28.2857 16.5C26.125 16.5 24.3571 18.2679 24.3571 20.4286C24.3571 21.6464 24.9464 22.7857 25.8107 23.4929C24.5536 24.2786 23.6893 25.575 23.5714 27.1464L17.2857 22.3929V17.2857H20.4286C20.8607 17.2857 21.2143 16.9321 21.2143 16.5V11C21.2143 9.31071 20.3107 7.81786 18.975 6.99286C19.8393 6.28571 20.4286 5.14643 20.4286 3.92857C20.4286 1.76786 18.6607 0 16.5 0C14.3393 0 12.5714 1.76786 12.5714 3.92857C12.5714 5.14643 13.1607 6.28571 14.025 6.99286C12.6893 7.81786 11.7857 9.31071 11.7857 11V16.5C11.7857 16.9321 12.1393 17.2857 12.5714 17.2857H15.7143V22.3929L9.42857 27.1071C9.31071 25.575 8.44643 24.2393 7.18929 23.4536C8.05357 22.7857 8.64286 21.6464 8.64286 20.4286C8.64286 18.2679 6.875 16.5 4.71429 16.5C2.55357 16.5 0.785714 18.2679 0.785714 20.4286C0.785714 21.6464 1.375 22.7857 2.23929 23.4929C0.903571 24.3179 0 25.8107 0 27.5V33C0 33.4321 0.353571 33.7857 0.785714 33.7857H8.64286C9.075 33.7857 9.42857 33.4321 9.42857 33V29.0714L16.5 23.7679L23.5714 29.0714V33C23.5714 33.4321 23.925 33.7857 24.3571 33.7857H32.2143C32.6464 33.7857 33 33.4321 33 33V27.5C33 25.8107 32.0964 24.3179 30.7607 23.4929ZM4.71429 18.0714C6.01071 18.0714 7.07143 19.1321 7.07143 20.4286C7.07143 21.725 6.01071 22.7857 4.71429 22.7857C3.41786 22.7857 2.35714 21.725 2.35714 20.4286C2.35714 19.1321 3.41786 18.0714 4.71429 18.0714ZM7.85714 32.2143H1.57143V27.5C1.57143 25.7714 2.98571 24.3571 4.71429 24.3571C6.44286 24.3571 7.85714 25.7714 7.85714 27.5V32.2143ZM16.5 1.57143C17.7964 1.57143 18.8571 2.63214 18.8571 3.92857C18.8571 5.225 17.7964 6.28571 16.5 6.28571C15.2036 6.28571 14.1429 5.225 14.1429 3.92857C14.1429 2.63214 15.2036 1.57143 16.5 1.57143ZM13.3571 15.7143V11C13.3571 9.27143 14.7714 7.85714 16.5 7.85714C18.2286 7.85714 19.6429 9.27143 19.6429 11V15.7143H13.3571ZM28.2857 18.0714C29.5821 18.0714 30.6429 19.1321 30.6429 20.4286C30.6429 21.725 29.5821 22.7857 28.2857 22.7857C26.9893 22.7857 25.9286 21.725 25.9286 20.4286C25.9286 19.1321 26.9893 18.0714 28.2857 18.0714ZM31.4286 32.2143H25.1429V27.5C25.1429 25.7714 26.5571 24.3571 28.2857 24.3571C30.0143 24.3571 31.4286 25.7714 31.4286 27.5V32.2143Z" fill="black"/>
</svg>
