<svg width="30" height="34" viewBox="0 0 30 34" fill="none" xmlns="http://www.w3.org/2000/svg">
<path d="M14.9999 33.3363C14.8959 33.3364 14.7925 33.3204 14.6934 33.289C0.879874 28.9139 -0.456566 21.9094 0.854101 16.8042C2.17072 11.6765 2.44618 8.67971 0.297161 6.53082C0.202118 6.43577 0.126907 6.32278 0.0758984 6.19841C0.0248896 6.07405 -0.000901147 5.94079 2.40374e-05 5.80637C0.000949222 5.67196 0.028572 5.53906 0.0812878 5.41541C0.134004 5.29176 0.210762 5.17982 0.307105 5.08608L5.2432 0.287382C5.3658 0.168108 5.51657 0.0817646 5.68149 0.0363756C5.84641 -0.00901339 6.02013 -0.0119745 6.1865 0.0277673C6.35287 0.067509 6.5065 0.148664 6.6331 0.26369C6.7597 0.378715 6.85517 0.523879 6.91063 0.685689C6.94628 0.78716 7.8533 3.31893 10.3742 3.15441C11.1598 3.10028 11.9165 2.8366 12.5656 2.39081C13.2147 1.94503 13.7325 1.33343 14.0651 0.619666C14.1437 0.43711 14.2739 0.281505 14.4398 0.17199C14.6056 0.0624762 14.7999 0.00382926 14.9986 0.00326341H15.0054C15.2047 0.00369899 15.3994 0.0630002 15.5651 0.173723C15.7309 0.284446 15.8602 0.441656 15.9369 0.625619C16.2702 1.33791 16.7881 1.94804 17.4367 2.3927C18.0854 2.83737 18.8412 3.10036 19.6258 3.15441C22.1836 3.31961 23.0808 0.712342 23.0893 0.685689C23.1448 0.523879 23.2402 0.378715 23.3668 0.26369C23.4934 0.148664 23.6471 0.067509 23.8134 0.0277673C23.9798 -0.0119745 24.1535 -0.00901339 24.3184 0.0363756C24.4834 0.0817646 24.6341 0.168108 24.7567 0.287382L29.6929 5.08608C29.7892 5.17982 29.866 5.29176 29.9187 5.41541C29.9714 5.53906 29.9991 5.67196 30 5.80637C30.0009 5.94079 29.9751 6.07405 29.9241 6.19841C29.8731 6.32278 29.7979 6.43577 29.7028 6.53082C27.5538 8.67984 27.829 11.6764 29.1459 16.8042C30.4566 21.9094 29.1201 28.9139 15.3066 33.2885C15.2074 33.3201 15.104 33.3363 14.9999 33.3363V33.3363ZM2.41114 5.87153C4.71115 8.89645 3.96297 12.8575 2.82007 17.3095C1.24646 23.4368 5.34365 28.1275 14.9999 31.2559C24.6561 28.1275 28.7533 23.4368 27.1797 17.3089C26.0365 12.8569 25.2884 8.89584 27.5887 5.87092L24.3179 2.69069C23.8105 3.49489 23.098 4.14949 22.2539 4.58724C21.4097 5.025 20.4642 5.23012 19.5145 5.18153C18.6426 5.13968 17.7895 4.91355 17.0113 4.51802C16.2331 4.1225 15.5476 3.56657 14.9999 2.88687C14.4522 3.56657 13.7667 4.1225 12.9885 4.51802C12.2103 4.91355 11.3572 5.13968 10.4853 5.18153C9.53654 5.22446 8.59324 5.01699 7.7501 4.57994C6.90696 4.1429 6.19367 3.49168 5.68189 2.6917L2.41114 5.87153Z" fill="#222222"/>
<path d="M14.9999 17.7639C14.4267 17.764 13.8664 17.5941 13.3898 17.2757C12.9132 16.9573 12.5418 16.5048 12.3224 15.9752C12.103 15.4457 12.0456 14.863 12.1574 14.3009C12.2692 13.7387 12.5452 13.2224 12.9505 12.8171C13.3558 12.4118 13.8722 12.1358 14.4343 12.024C14.9965 11.9122 15.5791 11.9696 16.1087 12.189C16.6382 12.4083 17.0908 12.7798 17.4091 13.2564C17.7275 13.733 17.8974 14.2933 17.8974 14.8665C17.8964 15.6346 17.5908 16.3711 17.0477 16.9142C16.5045 17.4574 15.7681 17.763 14.9999 17.7639ZM14.9999 13.9977C14.8281 13.9977 14.6602 14.0485 14.5174 14.1439C14.3745 14.2393 14.2632 14.3749 14.1974 14.5335C14.1316 14.6922 14.1144 14.8668 14.1478 15.0352C14.1812 15.2037 14.2639 15.3584 14.3853 15.4799C14.5067 15.6014 14.6614 15.6842 14.8298 15.7178C14.9983 15.7513 15.1729 15.7342 15.3316 15.6685C15.4903 15.6029 15.6259 15.4916 15.7214 15.3489C15.8169 15.2061 15.8679 15.0382 15.868 14.8665C15.8678 14.6362 15.7763 14.4155 15.6136 14.2526C15.4508 14.0898 15.2301 13.9981 14.9999 13.9978V13.9977Z" fill="#222222"/>
<path d="M14.9999 22.7392C14.7308 22.7392 14.4727 22.6322 14.2824 22.442C14.0921 22.2517 13.9852 21.9936 13.9852 21.7244V17.4568C13.9852 17.1877 14.0921 16.9296 14.2824 16.7393C14.4727 16.549 14.7308 16.4421 14.9999 16.4421C15.269 16.4421 15.5271 16.549 15.7174 16.7393C15.9077 16.9296 16.0146 17.1877 16.0146 17.4568V21.7244C16.0146 21.8577 15.9884 21.9896 15.9374 22.1128C15.8864 22.2359 15.8116 22.3477 15.7174 22.442C15.6232 22.5362 15.5113 22.6109 15.3882 22.6619C15.2651 22.7129 15.1332 22.7392 14.9999 22.7392Z" fill="#222222"/>
</svg>
