<svg width="13" height="13" viewBox="0 0 13 13" fill="none" xmlns="http://www.w3.org/2000/svg">
<path d="M12.873 7.0603L5.9397 0.126967C5.85867 0.0455 5.7486 0 5.63333 0H0.433333C0.1937 0 0 0.1937 0 0.433333V5.63333C0 5.7486 0.0455 5.85867 0.126967 5.9397L7.0603 12.873C7.1448 12.9575 7.25573 13 7.36667 13C7.4776 13 7.58853 12.9575 7.67303 12.873L12.873 7.67303C13.0425 7.5036 13.0425 7.22973 12.873 7.0603ZM7.36667 11.9539L0.866667 5.45393V0.866667H5.45393L11.9539 7.36667L7.36667 11.9539Z" fill="black"/>
<path d="M3.0334 1.73334C2.31667 1.73334 1.7334 2.3166 1.7334 3.03334C1.7334 3.75007 2.31667 4.33334 3.0334 4.33334C3.75013 4.33334 4.3334 3.75007 4.3334 3.03334C4.3334 2.3166 3.75013 1.73334 3.0334 1.73334ZM3.0334 3.46667C2.7942 3.46667 2.60007 3.27254 2.60007 3.03334C2.60007 2.79414 2.7942 2.6 3.0334 2.6C3.2726 2.6 3.46673 2.79414 3.46673 3.03334C3.46673 3.27254 3.2726 3.46667 3.0334 3.46667Z" fill="black"/>
</svg>
