<svg width="58" height="58" viewBox="0 0 58 58" fill="none" xmlns="http://www.w3.org/2000/svg">
<path d="M0 38C0 35.581 1.71776 33.5633 4 33.1V26C4 11.6795 15.1548 0 29 0C42.8452 0 54 11.6795 54 26V33.1C56.2822 33.5633 58 35.581 58 38V53C58 55.7614 55.7614 58 53 58H50C49.4477 58 49 57.5523 49 57V34C49 33.4477 49.4477 33 50 33H52V27.697C52 17.5466 41.8964 9 29 9C16.1036 9 6 17.5466 6 27.697V33H8C8.5523 33 9 33.4477 9 34V56H15V53C15 52.4477 15.4477 52 16 52H17C18.6569 52 20 53.3431 20 55C20 56.6569 18.6569 58 17 58H5C2.23858 58 0 55.7614 0 53V38Z" fill="black"/>
</svg>
