<svg width="27" height="27" viewBox="0 0 27 27" fill="none" xmlns="http://www.w3.org/2000/svg">
<path d="M26.5 13.25C26.5 20.5679 20.5679 26.5 13.25 26.5C5.93288 26.5 0 20.5679 0 13.25C0 5.93288 5.93288 0 13.25 0C20.5679 0 26.5 5.93288 26.5 13.25Z" fill="#F58F8F"/>
<path d="M12.7145 12.9476C12.5773 12.8362 12.3817 12.833 12.239 12.9367C12.2289 12.9445 11.2562 13.6397 9.35365 13.6397C7.4511 13.6397 6.47762 12.9445 6.46904 12.9383C6.32719 12.8323 6.13078 12.8346 5.99282 12.9453C5.85409 13.056 5.80732 13.2461 5.87903 13.4082C5.92657 13.5135 7.04815 15.978 9.35365 15.978C11.6591 15.978 12.7807 13.5135 12.8275 13.4082C12.8984 13.2469 12.8516 13.0583 12.7145 12.9476Z" fill="#664500"/>
<path d="M20.5089 12.9476C20.3717 12.8362 20.1769 12.8323 20.0335 12.9367C20.0241 12.9445 19.0506 13.6397 17.1481 13.6397C15.2455 13.6397 14.2713 12.9445 14.2635 12.9383C14.1216 12.8323 13.926 12.8346 13.7873 12.9453C13.6485 13.056 13.6018 13.2461 13.6735 13.4082C13.7202 13.5135 14.8426 15.978 17.1481 15.978C19.4536 15.978 20.5752 13.5135 20.6219 13.4082C20.6928 13.2469 20.6469 13.0583 20.5089 12.9476Z" fill="#664500"/>
<path d="M16.3677 21.0441H10.1324C9.7022 21.0441 9.35303 20.6957 9.35303 20.2647C9.35303 19.8337 9.7022 19.4853 10.1324 19.4853H16.3677C16.7987 19.4853 17.1471 19.8337 17.1471 20.2647C17.1471 20.6957 16.7987 21.0441 16.3677 21.0441Z" fill="#664500"/>
<path d="M3.89709 10.1323C3.46685 10.1323 3.11768 9.78315 3.11768 9.35291C3.11768 8.92346 3.46451 8.57506 3.89397 8.5735C4.01478 8.57194 6.67491 8.50647 8.72944 5.76762C8.98743 5.42468 9.47612 5.35297 9.82062 5.61174C10.1651 5.86972 10.2345 6.35841 9.9765 6.70291C7.43406 10.0934 4.0405 10.1323 3.89709 10.1323Z" fill="#664500"/>
<path d="M22.6028 10.1323C22.4594 10.1323 19.0666 10.0934 16.5234 6.70291C16.2646 6.35841 16.3347 5.86972 16.6792 5.61174C17.0237 5.35219 17.5117 5.42312 17.7704 5.76762C19.8281 8.51193 22.4944 8.57272 22.6075 8.5735C23.0361 8.57818 23.3822 8.92891 23.3799 9.35681C23.3775 9.78627 23.0315 10.1323 22.6028 10.1323Z" fill="#664500"/>
</svg>
