<svg width="82" height="41" viewBox="0 0 82 41" fill="none" xmlns="http://www.w3.org/2000/svg">
<path d="M31.3066 39.097V14.993C31.3066 14.2433 31.8676 13.7243 32.5409 13.7243H38.6C39.2732 13.7243 39.8343 14.2433 39.8343 14.993V39.097C39.8343 39.789 39.2732 40.3657 38.6 40.3657H32.5409C31.8676 40.3657 31.3066 39.789 31.3066 39.097ZM35.5143 10.0338C32.8214 10.0338 30.6895 7.78481 30.6895 5.07454C30.6895 2.30661 32.8214 0 35.5143 0C38.2073 0 40.3953 2.30661 40.3953 5.07454C40.3953 7.78481 38.2073 10.0338 35.5143 10.0338ZM43.5023 39.097V1.26864C43.5023 0.634318 44.0634 0 44.7366 0H50.7957C51.469 0 52.03 0.634318 52.03 1.26864V39.097C52.03 39.789 51.469 40.3657 50.7957 40.3657H44.7366C44.0634 40.3657 43.5023 39.789 43.5023 39.097ZM54.1833 26.9873C54.1833 19.4909 60.2985 13.1477 67.7041 13.1477C75.1097 13.1477 81.1688 19.4909 81.1688 26.9873C81.1688 34.5992 75.1097 41 67.7041 41C60.2985 41 54.1833 34.5992 54.1833 26.9873ZM62.2621 26.9873C62.2621 30.1013 64.6745 32.7539 67.7041 32.7539C70.6776 32.7539 73.09 30.1013 73.09 26.9873C73.09 23.9311 70.6776 21.3361 67.7041 21.3361C64.6745 21.3361 62.2621 23.9311 62.2621 26.9873Z" fill="#2E282A"/>
<path d="M16.9515 13.6667H26.5072C27.0595 13.6667 27.5072 14.1144 27.5072 14.6667C27.5072 14.8583 27.4522 15.046 27.3486 15.2072L11.397 40.034C11.2131 40.3204 10.8961 40.4935 10.5557 40.4935H1C0.447715 40.4935 0 40.0458 0 39.4935C0 39.3018 0.0550825 39.1142 0.158689 38.9529L16.1102 14.1261C16.2942 13.8398 16.6112 13.6667 16.9515 13.6667Z" fill="white"/>
<path d="M10.5558 13.6667H1.00002C0.447739 13.6667 2.28882e-05 14.1144 2.28882e-05 14.6667C2.28882e-05 14.8583 0.0551052 15.046 0.158712 15.2072L16.1102 40.034C16.2942 40.3204 16.6112 40.4935 16.9515 40.4935H26.5073C27.0595 40.4935 27.5073 40.0458 27.5073 39.4935C27.5073 39.3018 27.4522 39.1142 27.3486 38.9529L11.3971 14.1261C11.2131 13.8398 10.8961 13.6667 10.5558 13.6667Z" fill="#17BEBB"/>
<path fill-rule="evenodd" clip-rule="evenodd" d="M16.9515 13.6667H26.5072C27.0595 13.6667 27.5072 14.1144 27.5072 14.6667C27.5072 14.8583 27.4522 15.046 27.3486 15.2072L11.397 40.034C11.2131 40.3204 10.8961 40.4935 10.5557 40.4935H1C0.447715 40.4935 0 40.0458 0 39.4935C0 39.3018 0.0550825 39.1142 0.158689 38.9529L16.1102 14.1261C16.2942 13.8398 16.6112 13.6667 16.9515 13.6667Z" fill="#2E282A"/>
</svg>
