<svg width="15" height="12" fill="none" xmlns="http://www.w3.org/2000/svg"><path fill-rule="evenodd" clip-rule="evenodd" d="M13.263 12h-12A1.263 1.263 0 010 10.737V1.263C0 .566.566 0 1.263 0h12c.698 0 1.263.566 1.263 1.263v9.474c0 .697-.565 1.263-1.263 1.263zm.632-10.737a.632.632 0 00-.632-.631h-12a.632.632 0 00-.631.631v1.895h13.263V1.263zm0 2.526H.632v6.948c0 .348.283.631.631.631h12a.632.632 0 00.632-.631V3.789zm-1.263 4.422H12a.316.316 0 01-.316-.316v-.632c0-.174.142-.316.316-.316h.632c.174 0 .315.142.315.316v.632a.316.316 0 01-.315.316zm0-2.211H12a.316.316 0 01-.316-.316v-.631c0-.175.142-.316.316-.316h.632c.174 0 .315.141.315.316v.631a.316.316 0 01-.315.316zm-2.527 2.21h-.631a.316.316 0 01-.316-.315v-.632c0-.174.141-.316.316-.316h.631c.175 0 .316.142.316.316v.632a.316.316 0 01-.316.316zm0-2.21h-.631a.316.316 0 01-.316-.316v-.631c0-.175.141-.316.316-.316h.631c.175 0 .316.141.316.316v.631a.316.316 0 01-.316.316zM7.58 8.21h-.632a.316.316 0 01-.315-.315v-.632c0-.174.14-.316.315-.316h.632c.175 0 .316.142.316.316v.632a.316.316 0 01-.316.316zm0-2.21h-.632a.316.316 0 01-.315-.316v-.631c0-.175.14-.316.315-.316h.632c.175 0 .316.141.316.316v.631A.316.316 0 017.579 6zm-2.526 4.421H4.42a.316.316 0 01-.316-.316v-.631c0-.175.141-.316.316-.316h.632c.174 0 .315.141.315.316v.631a.316.316 0 01-.315.316zm0-2.21H4.42a.316.316 0 01-.316-.316v-.632c0-.174.141-.316.316-.316h.632c.174 0 .315.142.315.316v.632a.316.316 0 01-.315.316zm0-2.211H4.42a.316.316 0 01-.316-.316v-.631c0-.175.141-.316.316-.316h.632c.174 0 .315.141.315.316v.631A.316.316 0 015.053 6zm-2.527 4.421h-.631a.316.316 0 01-.316-.316v-.631c0-.175.141-.316.316-.316h.631c.175 0 .316.141.316.316v.631a.316.316 0 01-.316.316zm0-2.21h-.631a.316.316 0 01-.316-.316v-.632c0-.174.141-.316.316-.316h.631c.175 0 .316.142.316.316v.632a.316.316 0 01-.316.316zm4.421.947h.632c.175 0 .316.141.316.316v.631a.316.316 0 01-.316.316h-.632a.316.316 0 01-.315-.316v-.631c0-.175.14-.316.315-.316z" fill="#000"/></svg>